{"metadata":{"kernelspec":{"language":"python","display_name":"Python 3","name":"python3"},"language_info":{"name":"python","version":"3.12.12","mimetype":"text/x-python","codemirror_mode":{"name":"ipython","version":3},"pygments_lexer":"ipython3","nbconvert_exporter":"python","file_extension":".py"},"kaggle":{"accelerator":"none","dataSources":[{"sourceId":14663787,"sourceType":"datasetVersion","datasetId":9367894}],"dockerImageVersionId":31259,"isInternetEnabled":true,"language":"python","sourceType":"notebook","isGpuEnabled":false}},"nbformat_minor":4,"nbformat":4,"cells":[{"cell_type":"code","source":"# This Python 3 environment comes with many helpful analytics libraries installed\n# It is defined by the kaggle/python Docker image: https://github.com/kaggle/docker-python\n# For example, here's several helpful packages to load\n\nimport numpy as np # linear algebra\nimport pandas as pd # data processing, CSV file I/O (e.g. pd.read_csv)\n\n# Input data files are available in the read-only \"../input/\" directory\n# For example, running this (by clicking run or pressing Shift+Enter) will list all files under the input directory\n\nimport os\nfor dirname, _, filenames in os.walk('/kaggle/input'):\n    for filename in filenames:\n        print(os.path.join(dirname, filename))\n\n# You can write up to 20GB to the current directory (/kaggle/working/) that gets preserved as output when you create a version using \"Save & Run All\" \n# You can also write temporary files to /kaggle/temp/, but they won't be saved outside of the current session","metadata":{"_uuid":"8f2839f25d086af736a60e9eeb907d3b93b6e0e5","_cell_guid":"b1076dfc-b9ad-4769-8c92-a6c4dae69d19","trusted":true,"execution":{"iopub.status.busy":"2026-01-31T17:33:58.613949Z","iopub.execute_input":"2026-01-31T17:33:58.614582Z","iopub.status.idle":"2026-01-31T17:34:00.982390Z","shell.execute_reply.started":"2026-01-31T17:33:58.614517Z","shell.execute_reply":"2026-01-31T17:34:00.981192Z"}},"outputs":[{"name":"stdout","text":"/kaggle/input/video-inpainting-small-dataset/humans/vid6_960x540_30fps_10s.mp4\n/kaggle/input/video-inpainting-small-dataset/humans/vid5_960x540_30fps_10s.mp4\n/kaggle/input/video-inpainting-small-dataset/humans/vid4_960x540_30fps_10s.mp4\n/kaggle/input/video-inpainting-small-dataset/humans/vid1_540x960_30fps_10s.mp4\n/kaggle/input/video-inpainting-small-dataset/humans/vid2_540x960_30fps_10s.mp4\n/kaggle/input/video-inpainting-small-dataset/humans/vid3_960x540_30fps_10s.mp4\n/kaggle/input/video-inpainting-small-dataset/cars/vid3_540x960_30fps_10s.mp4\n/kaggle/input/video-inpainting-small-dataset/cars/vid6_960x540_30fps_10s.mp4\n/kaggle/input/video-inpainting-small-dataset/cars/vid5_960x540_30fps_10s.mp4\n/kaggle/input/video-inpainting-small-dataset/cars/vid4_960x540_30fps_10s.mp4\n/kaggle/input/video-inpainting-small-dataset/cars/vid2_960x540_30fps_10s.mp4\n/kaggle/input/video-inpainting-small-dataset/cars/vid1_960x540_30fps_10s.mp4\n/kaggle/input/video-inpainting-small-dataset/cats/vid3_960x540_30fps.mp4\n/kaggle/input/video-inpainting-small-dataset/cats/vid1_960x540_30fps.mp4\n/kaggle/input/video-inpainting-small-dataset/cats/vid6_960x540_30fps.mp4\n/kaggle/input/video-inpainting-small-dataset/cats/vid5_960x540_30fps.mp4\n/kaggle/input/video-inpainting-small-dataset/cats/vid2_960x540_30fps.mp4\n/kaggle/input/video-inpainting-small-dataset/cats/vid4_960x540_30fps.mp4\n","output_type":"stream"}],"execution_count":1},{"cell_type":"markdown","source":"# Standardisation method (already applied before upload) # \n\nAll videos in this dataset (cats / cars / humans) were standardized offline using PowerShell + FFmpeg to ensure consistent resolution, frame rate, encoding, and (for cars/humans) consistent clip length.\n\n## Common settings (all categories) ##\n* **Frame rate:** forced to 30 fps\n* **Aspect ratio handling:**  original aspect ratio preserved; video is resized to fit within a target canvas, then letterboxed/padded to fill the canvas (no stretching)\n* **Video codec:** H.264 (libx264) with -crf 18 and -preset slow\n* **Pixel format:** yuv420p (widest compatibility)\n* **Audio:** removed (-an)\n* **Sample aspect ratio:** normalized to 1:1 (setsar=1) for consistency across sources\n\n## Canvas size (depends on orientation / category) ##\n* Cat videos were standardized to a single landscape canvas: 960×540\n* Cars and humans videos are more diverse (including portrait and ultrawide). To avoid shrinking portrait subjects into a landscape frame, we used an orientation-aware target:\n    * Landscape videos: 960×540\n    * Portrait videos: 540×960\n\nAll clips were also standardized to a fixed duration of 10 seconds.","metadata":{}},{"cell_type":"markdown","source":"# Overview #\n\nUse this notebook to extract frames from standardized cat videos stored in a Kaggle input dataset. It supports:\n\n* Extracting frames as JPG (recommended for size) or PNG\n* Optional frame stride (e.g., keep every 2nd frame)\n* Optional ZIP per video (helps with file-count limits and easier downloading)\n* A manifest CSV per video (frame index, timestamp, path)","metadata":{}},{"cell_type":"code","source":"from pathlib import Path\nimport re\nimport json\nimport shutil\nimport subprocess\nfrom datetime import datetime","metadata":{"trusted":true,"execution":{"iopub.status.busy":"2026-01-31T17:34:06.944824Z","iopub.execute_input":"2026-01-31T17:34:06.945705Z","iopub.status.idle":"2026-01-31T17:34:06.951607Z","shell.execute_reply.started":"2026-01-31T17:34:06.945665Z","shell.execute_reply":"2026-01-31T17:34:06.950097Z"}},"outputs":[],"execution_count":2},{"cell_type":"markdown","source":"# Settings #","metadata":{}},{"cell_type":"code","source":"from pathlib import Path\n\n# -----------------------------\n# INPUT DATASET STRUCTURE\n# -----------------------------\n# /kaggle/input/video-inpainting-small-dataset/\n#   cats/*.mp4\n#   cars/*.mp4\n#   humans/*.mp4\nINPUT_ROOT = Path(\"/kaggle/input/video-inpainting-small-dataset\")\nCATEGORIES = [\"cats\", \"cars\", \"humans\"]   # process all in one run\n\n# -----------------------------\n# OUTPUT\n# -----------------------------\nOUT_ROOT = Path(\"/kaggle/working/video_inpainting_frames_dataset\")\n\n# We’ll store outputs like:\n# OUT_ROOT/\n#   frames/<category>/<video_id>/<frame>.jpg\n#   manifests/<category>/<video_id>.csv\n#   zips/<category>/<video_id>.zip\nOUT_FRAMES_DIR = OUT_ROOT / \"frames\"\nOUT_MANIFESTS_DIR = OUT_ROOT / \"manifests\"\nOUT_ZIPS_DIR = OUT_ROOT / \"zips\"\n\n# Also write a master index across all videos:\nOUT_MASTER_INDEX = OUT_ROOT / \"index_videos.csv\"\n\n# -----------------------------\n# EXTRACTION SETTINGS\n# -----------------------------\nOUTPUT_FORMAT = \"jpg\"   # \"jpg\" or \"png\"\nJPG_QUALITY = 2         # FFmpeg -q:v (lower is better quality, larger files). Typical: 2-5.\nPNG_COMPRESSION = 6     # FFmpeg -compression_level 0-9 (higher smaller, slower). Only used if OUTPUT_FORMAT=\"png\".\n\nFRAME_STRIDE = 1        # 1 = keep every frame, 2 = every other frame, etc.\nLIMIT_VIDEOS_PER_CATEGORY = None  # e.g., 2 for testing; None for all\nOVERWRITE = False       # if False, skip videos whose output already exists\n\n# -----------------------------\n# PACKAGING SETTINGS\n# -----------------------------\nZIP_EACH_VIDEO = True\nDELETE_RAW_FRAMES_AFTER_ZIP = False  # True to save space\n\n# -----------------------------\n# LOGGING\n# -----------------------------\nVERBOSE = True","metadata":{"trusted":true,"execution":{"iopub.status.busy":"2026-01-31T17:34:10.908821Z","iopub.execute_input":"2026-01-31T17:34:10.909211Z","iopub.status.idle":"2026-01-31T17:34:10.916251Z","shell.execute_reply.started":"2026-01-31T17:34:10.909181Z","shell.execute_reply":"2026-01-31T17:34:10.915101Z"}},"outputs":[],"execution_count":4},{"cell_type":"markdown","source":"# Helper functions (FFmpeg extract + zip + manifests) #","metadata":{}},{"cell_type":"code","source":"import csv\nimport shutil\nimport subprocess\nfrom zipfile import ZipFile, ZIP_DEFLATED\n\ndef log(msg: str):\n    if VERBOSE:\n        print(msg)\n\ndef ensure_dir(p: Path):\n    p.mkdir(parents=True, exist_ok=True)\n\ndef run(cmd):\n    # Show command only if verbose\n    if VERBOSE:\n        print(\" \".join(map(str, cmd)))\n    subprocess.run(cmd, check=True)\n\ndef extract_frames_ffmpeg(video_path: Path, frames_dir: Path):\n    \"\"\"\n    Extract frames to frames_dir/%05d.<ext>\n    Uses stride via select filter so you can keep exact frame numbers at 30fps sources.\n    \"\"\"\n    ensure_dir(frames_dir)\n    out_pattern = str(frames_dir / f\"%05d.{OUTPUT_FORMAT}\")\n\n    # select every Nth frame: keep when n % stride == 0\n    # Need to escape commas for ffmpeg expression on some shells; in Python list args, we pass as-is.\n    if FRAME_STRIDE == 1:\n        vf = None\n    else:\n        vf = f\"select=not(mod(n\\\\,{FRAME_STRIDE}))\"\n\n    cmd = [\"ffmpeg\", \"-y\" if OVERWRITE else \"-n\", \"-i\", str(video_path), \"-vsync\", \"vfr\"]\n    if vf is not None:\n        cmd += [\"-vf\", vf]\n\n    if OUTPUT_FORMAT.lower() == \"jpg\":\n        cmd += [\"-q:v\", str(JPG_QUALITY)]\n    elif OUTPUT_FORMAT.lower() == \"png\":\n        cmd += [\"-compression_level\", str(PNG_COMPRESSION)]\n    else:\n        raise ValueError(\"OUTPUT_FORMAT must be 'jpg' or 'png'\")\n\n    cmd += [out_pattern]\n    run(cmd)\n\ndef list_frames(frames_dir: Path):\n    frames = sorted(frames_dir.glob(f\"*.{OUTPUT_FORMAT}\"))\n    return frames\n\ndef write_video_manifest_csv(manifest_path: Path, category: str, video_id: str, frames):\n    \"\"\"\n    Per-video manifest listing all extracted frames.\n    \"\"\"\n    ensure_dir(manifest_path.parent)\n    with manifest_path.open(\"w\", newline=\"\", encoding=\"utf-8\") as f:\n        w = csv.writer(f)\n        w.writerow([\"category\", \"video_id\", \"frame_index\", \"frame_file\"])\n        for i, fp in enumerate(frames):\n            w.writerow([category, video_id, i, str(fp)])\n\ndef zip_frames(frames_dir: Path, zip_path: Path):\n    ensure_dir(zip_path.parent)\n    frames = list_frames(frames_dir)\n    with ZipFile(zip_path, \"w\", compression=ZIP_DEFLATED) as z:\n        for fp in frames:\n            # Store inside the zip as just the filename (00001.jpg etc.)\n            z.write(fp, arcname=fp.name)\n\ndef safe_video_id(category: str, video_path: Path) -> str:\n    # Prefix category to avoid collisions if two categories share same basename\n    return f\"{category}__{video_path.stem}\"","metadata":{"trusted":true,"execution":{"iopub.status.busy":"2026-01-31T17:34:14.255584Z","iopub.execute_input":"2026-01-31T17:34:14.256649Z","iopub.status.idle":"2026-01-31T17:34:14.271808Z","shell.execute_reply.started":"2026-01-31T17:34:14.256611Z","shell.execute_reply":"2026-01-31T17:34:14.270281Z"}},"outputs":[],"execution_count":5},{"cell_type":"markdown","source":"# Main loop (process all categories + write a master index) #","metadata":{}},{"cell_type":"code","source":"ensure_dir(OUT_ROOT)\nensure_dir(OUT_FRAMES_DIR)\nensure_dir(OUT_MANIFESTS_DIR)\nensure_dir(OUT_ZIPS_DIR)\n\nmaster_rows = []\ntotal_videos = 0\n\nfor category in CATEGORIES:\n    videos_dir = INPUT_ROOT / category\n    if not videos_dir.exists():\n        log(f\"[WARN] Missing category folder: {videos_dir}\")\n        continue\n\n    videos = sorted(videos_dir.glob(\"*.mp4\"))\n    if LIMIT_VIDEOS_PER_CATEGORY is not None:\n        videos = videos[:LIMIT_VIDEOS_PER_CATEGORY]\n\n    log(f\"\\n=== Category: {category} | videos found: {len(videos)} ===\")\n\n    for video_path in videos:\n        total_videos += 1\n        video_id = safe_video_id(category, video_path)\n\n        frames_dir = OUT_FRAMES_DIR / category / video_id\n        manifest_path = OUT_MANIFESTS_DIR / category / f\"{video_id}.csv\"\n        zip_path = OUT_ZIPS_DIR / category / f\"{video_id}.zip\"\n\n        # Skip if already done (you can choose your own skip condition)\n        if not OVERWRITE:\n            if ZIP_EACH_VIDEO and zip_path.exists():\n                log(f\"[SKIP] {video_id} (zip exists)\")\n                master_rows.append([category, video_id, str(video_path), \"\", str(zip_path), True])\n                continue\n            if (not ZIP_EACH_VIDEO) and frames_dir.exists() and any(frames_dir.glob(f\"*.{OUTPUT_FORMAT}\")):\n                log(f\"[SKIP] {video_id} (frames exist)\")\n                master_rows.append([category, video_id, str(video_path), str(frames_dir), \"\", True])\n                continue\n\n        log(f\"[RUN] {video_id} <- {video_path.name}\")\n\n        # Clean existing frames folder if overwriting\n        if OVERWRITE and frames_dir.exists():\n            shutil.rmtree(frames_dir)\n\n        extract_frames_ffmpeg(video_path, frames_dir)\n        frames = list_frames(frames_dir)\n        write_video_manifest_csv(manifest_path, category, video_id, frames)\n\n        if ZIP_EACH_VIDEO:\n            if OVERWRITE and zip_path.exists():\n                zip_path.unlink()\n            zip_frames(frames_dir, zip_path)\n            if DELETE_RAW_FRAMES_AFTER_ZIP:\n                shutil.rmtree(frames_dir)\n\n        master_rows.append([\n            category,\n            video_id,\n            str(video_path),\n            str(frames_dir) if (not DELETE_RAW_FRAMES_AFTER_ZIP or not ZIP_EACH_VIDEO) else \"\",\n            str(zip_path) if ZIP_EACH_VIDEO else \"\",\n            False\n        ])\n\nlog(f\"\\nDone. Total videos processed/checked: {total_videos}\")\n\n# Write master index (one row per video)\nwith OUT_MASTER_INDEX.open(\"w\", newline=\"\", encoding=\"utf-8\") as f:\n    w = csv.writer(f)\n    w.writerow([\"category\", \"video_id\", \"source_video\", \"frames_dir\", \"zip_path\", \"skipped\"])\n    w.writerows(master_rows)\n\nprint(f\"Master index written to: {OUT_MASTER_INDEX}\")\nprint(f\"Outputs root: {OUT_ROOT}\")","metadata":{"trusted":true,"execution":{"iopub.status.busy":"2026-01-31T17:34:17.369478Z","iopub.execute_input":"2026-01-31T17:34:17.370781Z","iopub.status.idle":"2026-01-31T17:35:10.571661Z","shell.execute_reply.started":"2026-01-31T17:34:17.370741Z","shell.execute_reply":"2026-01-31T17:35:10.570499Z"}},"outputs":[{"name":"stdout","text":"\n=== Category: cats | videos found: 6 ===\n[RUN] cats__vid1_960x540_30fps <- vid1_960x540_30fps.mp4\nffmpeg -n -i /kaggle/input/video-inpainting-small-dataset/cats/vid1_960x540_30fps.mp4 -vsync vfr -q:v 2 /kaggle/working/video_inpainting_frames_dataset/frames/cats/cats__vid1_960x540_30fps/%05d.jpg\n","output_type":"stream"},{"name":"stderr","text":"ffmpeg version 4.4.2-0ubuntu0.22.04.1 Copyright (c) 2000-2021 the FFmpeg developers\n  built with gcc 11 (Ubuntu 11.2.0-19ubuntu1)\n  configuration: --prefix=/usr --extra-version=0ubuntu0.22.04.1 --toolchain=hardened --libdir=/usr/lib/x86_64-linux-gnu --incdir=/usr/include/x86_64-linux-gnu --arch=amd64 --enable-gpl --disable-stripping --enable-gnutls --enable-ladspa --enable-libaom --enable-libass --enable-libbluray --enable-libbs2b --enable-libcaca --enable-libcdio --enable-libcodec2 --enable-libdav1d --enable-libflite --enable-libfontconfig --enable-libfreetype --enable-libfribidi --enable-libgme --enable-libgsm --enable-libjack --enable-libmp3lame --enable-libmysofa --enable-libopenjpeg --enable-libopenmpt --enable-libopus --enable-libpulse --enable-librabbitmq --enable-librubberband --enable-libshine --enable-libsnappy --enable-libsoxr --enable-libspeex --enable-libsrt --enable-libssh --enable-libtheora --enable-libtwolame --enable-libvidstab --enable-libvorbis --enable-libvpx --enable-libwebp --enable-libx265 --enable-libxml2 --enable-libxvid --enable-libzimg --enable-libzmq --enable-libzvbi --enable-lv2 --enable-omx --enable-openal --enable-opencl --enable-opengl --enable-sdl2 --enable-pocketsphinx --enable-librsvg --enable-libmfx --enable-libdc1394 --enable-libdrm --enable-libiec61883 --enable-chromaprint --enable-frei0r --enable-libx264 --enable-shared\n  libavutil      56. 70.100 / 56. 70.100\n  libavcodec     58.134.100 / 58.134.100\n  libavformat    58. 76.100 / 58. 76.100\n  libavdevice    58. 13.100 / 58. 13.100\n  libavfilter     7.110.100 /  7.110.100\n  libswscale      5.  9.100 /  5.  9.100\n  libswresample   3.  9.100 /  3.  9.100\n  libpostproc    55.  9.100 / 55.  9.100\nInput #0, mov,mp4,m4a,3gp,3g2,mj2, from '/kaggle/input/video-inpainting-small-dataset/cats/vid1_960x540_30fps.mp4':\n  Metadata:\n    major_brand     : isom\n    minor_version   : 512\n    compatible_brands: isomiso2avc1mp41\n    encoder         : Lavf61.7.100\n  Duration: 00:00:10.00, start: 0.000000, bitrate: 6522 kb/s\n  Stream #0:0(eng): Video: h264 (High) (avc1 / 0x31637661), yuv420p, 960x540 [SAR 1:1 DAR 16:9], 6518 kb/s, 30 fps, 30 tbr, 15360 tbn, 60 tbc (default)\n    Metadata:\n      handler_name    : ?Mainconcept Video Media Handler\n      vendor_id       : [0][0][0][0]\n      encoder         : Lavc61.19.101 libx264\nStream mapping:\n  Stream #0:0 -> #0:0 (h264 (native) -> mjpeg (native))\nPress [q] to stop, [?] for help\n[swscaler @ 0x5713bb0326c0] deprecated pixel format used, make sure you did set range correctly\nOutput #0, image2, to '/kaggle/working/video_inpainting_frames_dataset/frames/cats/cats__vid1_960x540_30fps/%05d.jpg':\n  Metadata:\n    major_brand     : isom\n    minor_version   : 512\n    compatible_brands: isomiso2avc1mp41\n    encoder         : Lavf58.76.100\n  Stream #0:0(eng): Video: mjpeg, yuvj420p(pc, progressive), 960x540 [SAR 1:1 DAR 16:9], q=2-31, 200 kb/s, 30 fps, 30 tbn (default)\n    Metadata:\n      handler_name    : ?Mainconcept Video Media Handler\n      vendor_id       : [0][0][0][0]\n      encoder         : Lavc58.134.100 mjpeg\n    Side data:\n      cpb: bitrate max/min/avg: 0/0/200000 buffer size: 0 vbv_delay: N/A\nframe=  300 fps=136 q=2.0 Lsize=N/A time=00:00:10.00 bitrate=N/A speed=4.53x    \nvideo:61804kB audio:0kB subtitle:0kB other streams:0kB global headers:0kB muxing overhead: unknown\n","output_type":"stream"},{"name":"stdout","text":"[RUN] cats__vid2_960x540_30fps <- vid2_960x540_30fps.mp4\nffmpeg -n -i /kaggle/input/video-inpainting-small-dataset/cats/vid2_960x540_30fps.mp4 -vsync vfr -q:v 2 /kaggle/working/video_inpainting_frames_dataset/frames/cats/cats__vid2_960x540_30fps/%05d.jpg\n","output_type":"stream"},{"name":"stderr","text":"ffmpeg version 4.4.2-0ubuntu0.22.04.1 Copyright (c) 2000-2021 the FFmpeg developers\n  built with gcc 11 (Ubuntu 11.2.0-19ubuntu1)\n  configuration: --prefix=/usr --extra-version=0ubuntu0.22.04.1 --toolchain=hardened --libdir=/usr/lib/x86_64-linux-gnu --incdir=/usr/include/x86_64-linux-gnu --arch=amd64 --enable-gpl --disable-stripping --enable-gnutls --enable-ladspa --enable-libaom --enable-libass --enable-libbluray --enable-libbs2b --enable-libcaca --enable-libcdio --enable-libcodec2 --enable-libdav1d --enable-libflite --enable-libfontconfig --enable-libfreetype --enable-libfribidi --enable-libgme --enable-libgsm --enable-libjack --enable-libmp3lame --enable-libmysofa --enable-libopenjpeg --enable-libopenmpt --enable-libopus --enable-libpulse --enable-librabbitmq --enable-librubberband --enable-libshine --enable-libsnappy --enable-libsoxr --enable-libspeex --enable-libsrt --enable-libssh --enable-libtheora --enable-libtwolame --enable-libvidstab --enable-libvorbis --enable-libvpx --enable-libwebp --enable-libx265 --enable-libxml2 --enable-libxvid --enable-libzimg --enable-libzmq --enable-libzvbi --enable-lv2 --enable-omx --enable-openal --enable-opencl --enable-opengl --enable-sdl2 --enable-pocketsphinx --enable-librsvg --enable-libmfx --enable-libdc1394 --enable-libdrm --enable-libiec61883 --enable-chromaprint --enable-frei0r --enable-libx264 --enable-shared\n  libavutil      56. 70.100 / 56. 70.100\n  libavcodec     58.134.100 / 58.134.100\n  libavformat    58. 76.100 / 58. 76.100\n  libavdevice    58. 13.100 / 58. 13.100\n  libavfilter     7.110.100 /  7.110.100\n  libswscale      5.  9.100 /  5.  9.100\n  libswresample   3.  9.100 /  3.  9.100\n  libpostproc    55.  9.100 / 55.  9.100\nInput #0, mov,mp4,m4a,3gp,3g2,mj2, from '/kaggle/input/video-inpainting-small-dataset/cats/vid2_960x540_30fps.mp4':\n  Metadata:\n    major_brand     : isom\n    minor_version   : 512\n    compatible_brands: isomiso2avc1mp41\n    encoder         : Lavf61.7.100\n  Duration: 00:00:10.00, start: 0.000000, bitrate: 1095 kb/s\n  Stream #0:0(eng): Video: h264 (High) (avc1 / 0x31637661), yuv420p, 960x540 [SAR 1:1 DAR 16:9], 1091 kb/s, 30 fps, 30 tbr, 15360 tbn, 60 tbc (default)\n    Metadata:\n      handler_name    : ?Mainconcept Video Media Handler\n      vendor_id       : [0][0][0][0]\n      encoder         : Lavc61.19.101 libx264\nStream mapping:\n  Stream #0:0 -> #0:0 (h264 (native) -> mjpeg (native))\nPress [q] to stop, [?] for help\n[swscaler @ 0x56fea22a1b00] deprecated pixel format used, make sure you did set range correctly\nOutput #0, image2, to '/kaggle/working/video_inpainting_frames_dataset/frames/cats/cats__vid2_960x540_30fps/%05d.jpg':\n  Metadata:\n    major_brand     : isom\n    minor_version   : 512\n    compatible_brands: isomiso2avc1mp41\n    encoder         : Lavf58.76.100\n  Stream #0:0(eng): Video: mjpeg, yuvj420p(pc, progressive), 960x540 [SAR 1:1 DAR 16:9], q=2-31, 200 kb/s, 30 fps, 30 tbn (default)\n    Metadata:\n      handler_name    : ?Mainconcept Video Media Handler\n      vendor_id       : [0][0][0][0]\n      encoder         : Lavc58.134.100 mjpeg\n    Side data:\n      cpb: bitrate max/min/avg: 0/0/200000 buffer size: 0 vbv_delay: N/A\nframe=  300 fps=241 q=2.0 Lsize=N/A time=00:00:10.00 bitrate=N/A speed=8.03x    \nvideo:14316kB audio:0kB subtitle:0kB other streams:0kB global headers:0kB muxing overhead: unknown\n","output_type":"stream"},{"name":"stdout","text":"[RUN] cats__vid3_960x540_30fps <- vid3_960x540_30fps.mp4\nffmpeg -n -i /kaggle/input/video-inpainting-small-dataset/cats/vid3_960x540_30fps.mp4 -vsync vfr -q:v 2 /kaggle/working/video_inpainting_frames_dataset/frames/cats/cats__vid3_960x540_30fps/%05d.jpg\n","output_type":"stream"},{"name":"stderr","text":"ffmpeg version 4.4.2-0ubuntu0.22.04.1 Copyright (c) 2000-2021 the FFmpeg developers\n  built with gcc 11 (Ubuntu 11.2.0-19ubuntu1)\n  configuration: --prefix=/usr --extra-version=0ubuntu0.22.04.1 --toolchain=hardened --libdir=/usr/lib/x86_64-linux-gnu --incdir=/usr/include/x86_64-linux-gnu --arch=amd64 --enable-gpl --disable-stripping --enable-gnutls --enable-ladspa --enable-libaom --enable-libass --enable-libbluray --enable-libbs2b --enable-libcaca --enable-libcdio --enable-libcodec2 --enable-libdav1d --enable-libflite --enable-libfontconfig --enable-libfreetype --enable-libfribidi --enable-libgme --enable-libgsm --enable-libjack --enable-libmp3lame --enable-libmysofa --enable-libopenjpeg --enable-libopenmpt --enable-libopus --enable-libpulse --enable-librabbitmq --enable-librubberband --enable-libshine --enable-libsnappy --enable-libsoxr --enable-libspeex --enable-libsrt --enable-libssh --enable-libtheora --enable-libtwolame --enable-libvidstab --enable-libvorbis --enable-libvpx --enable-libwebp --enable-libx265 --enable-libxml2 --enable-libxvid --enable-libzimg --enable-libzmq --enable-libzvbi --enable-lv2 --enable-omx --enable-openal --enable-opencl --enable-opengl --enable-sdl2 --enable-pocketsphinx --enable-librsvg --enable-libmfx --enable-libdc1394 --enable-libdrm --enable-libiec61883 --enable-chromaprint --enable-frei0r --enable-libx264 --enable-shared\n  libavutil      56. 70.100 / 56. 70.100\n  libavcodec     58.134.100 / 58.134.100\n  libavformat    58. 76.100 / 58. 76.100\n  libavdevice    58. 13.100 / 58. 13.100\n  libavfilter     7.110.100 /  7.110.100\n  libswscale      5.  9.100 /  5.  9.100\n  libswresample   3.  9.100 /  3.  9.100\n  libpostproc    55.  9.100 / 55.  9.100\nInput #0, mov,mp4,m4a,3gp,3g2,mj2, from '/kaggle/input/video-inpainting-small-dataset/cats/vid3_960x540_30fps.mp4':\n  Metadata:\n    major_brand     : isom\n    minor_version   : 512\n    compatible_brands: isomiso2avc1mp41\n    encoder         : Lavf61.7.100\n  Duration: 00:00:10.00, start: 0.000000, bitrate: 1969 kb/s\n  Stream #0:0(eng): Video: h264 (High) (avc1 / 0x31637661), yuv420p, 960x540 [SAR 1:1 DAR 16:9], 1966 kb/s, 30 fps, 30 tbr, 15360 tbn, 60 tbc (default)\n    Metadata:\n      handler_name    : ?Mainconcept Video Media Handler\n      vendor_id       : [0][0][0][0]\n      encoder         : Lavc61.19.101 libx264\nStream mapping:\n  Stream #0:0 -> #0:0 (h264 (native) -> mjpeg (native))\nPress [q] to stop, [?] for help\n[swscaler @ 0x56c11a454ac0] deprecated pixel format used, make sure you did set range correctly\nOutput #0, image2, to '/kaggle/working/video_inpainting_frames_dataset/frames/cats/cats__vid3_960x540_30fps/%05d.jpg':\n  Metadata:\n    major_brand     : isom\n    minor_version   : 512\n    compatible_brands: isomiso2avc1mp41\n    encoder         : Lavf58.76.100\n  Stream #0:0(eng): Video: mjpeg, yuvj420p(pc, progressive), 960x540 [SAR 1:1 DAR 16:9], q=2-31, 200 kb/s, 30 fps, 30 tbn (default)\n    Metadata:\n      handler_name    : ?Mainconcept Video Media Handler\n      vendor_id       : [0][0][0][0]\n      encoder         : Lavc58.134.100 mjpeg\n    Side data:\n      cpb: bitrate max/min/avg: 0/0/200000 buffer size: 0 vbv_delay: N/A\nframe=  300 fps=204 q=2.0 Lsize=N/A time=00:00:10.00 bitrate=N/A speed=6.81x    \nvideo:23226kB audio:0kB subtitle:0kB other streams:0kB global headers:0kB muxing overhead: unknown\n","output_type":"stream"},{"name":"stdout","text":"[RUN] cats__vid4_960x540_30fps <- vid4_960x540_30fps.mp4\nffmpeg -n -i /kaggle/input/video-inpainting-small-dataset/cats/vid4_960x540_30fps.mp4 -vsync vfr -q:v 2 /kaggle/working/video_inpainting_frames_dataset/frames/cats/cats__vid4_960x540_30fps/%05d.jpg\n","output_type":"stream"},{"name":"stderr","text":"ffmpeg version 4.4.2-0ubuntu0.22.04.1 Copyright (c) 2000-2021 the FFmpeg developers\n  built with gcc 11 (Ubuntu 11.2.0-19ubuntu1)\n  configuration: --prefix=/usr --extra-version=0ubuntu0.22.04.1 --toolchain=hardened --libdir=/usr/lib/x86_64-linux-gnu --incdir=/usr/include/x86_64-linux-gnu --arch=amd64 --enable-gpl --disable-stripping --enable-gnutls --enable-ladspa --enable-libaom --enable-libass --enable-libbluray --enable-libbs2b --enable-libcaca --enable-libcdio --enable-libcodec2 --enable-libdav1d --enable-libflite --enable-libfontconfig --enable-libfreetype --enable-libfribidi --enable-libgme --enable-libgsm --enable-libjack --enable-libmp3lame --enable-libmysofa --enable-libopenjpeg --enable-libopenmpt --enable-libopus --enable-libpulse --enable-librabbitmq --enable-librubberband --enable-libshine --enable-libsnappy --enable-libsoxr --enable-libspeex --enable-libsrt --enable-libssh --enable-libtheora --enable-libtwolame --enable-libvidstab --enable-libvorbis --enable-libvpx --enable-libwebp --enable-libx265 --enable-libxml2 --enable-libxvid --enable-libzimg --enable-libzmq --enable-libzvbi --enable-lv2 --enable-omx --enable-openal --enable-opencl --enable-opengl --enable-sdl2 --enable-pocketsphinx --enable-librsvg --enable-libmfx --enable-libdc1394 --enable-libdrm --enable-libiec61883 --enable-chromaprint --enable-frei0r --enable-libx264 --enable-shared\n  libavutil      56. 70.100 / 56. 70.100\n  libavcodec     58.134.100 / 58.134.100\n  libavformat    58. 76.100 / 58. 76.100\n  libavdevice    58. 13.100 / 58. 13.100\n  libavfilter     7.110.100 /  7.110.100\n  libswscale      5.  9.100 /  5.  9.100\n  libswresample   3.  9.100 /  3.  9.100\n  libpostproc    55.  9.100 / 55.  9.100\nInput #0, mov,mp4,m4a,3gp,3g2,mj2, from '/kaggle/input/video-inpainting-small-dataset/cats/vid4_960x540_30fps.mp4':\n  Metadata:\n    major_brand     : isom\n    minor_version   : 512\n    compatible_brands: isomiso2avc1mp41\n    encoder         : Lavf61.7.100\n  Duration: 00:00:10.00, start: 0.000000, bitrate: 4029 kb/s\n  Stream #0:0(eng): Video: h264 (High) (avc1 / 0x31637661), yuv420p, 960x540 [SAR 1:1 DAR 16:9], 4025 kb/s, 30 fps, 30 tbr, 15360 tbn, 60 tbc (default)\n    Metadata:\n      handler_name    : ?Mainconcept Video Media Handler\n      vendor_id       : [0][0][0][0]\n      encoder         : Lavc61.19.101 libx264\nStream mapping:\n  Stream #0:0 -> #0:0 (h264 (native) -> mjpeg (native))\nPress [q] to stop, [?] for help\n[swscaler @ 0x55e0c3e6e800] deprecated pixel format used, make sure you did set range correctly\nOutput #0, image2, to '/kaggle/working/video_inpainting_frames_dataset/frames/cats/cats__vid4_960x540_30fps/%05d.jpg':\n  Metadata:\n    major_brand     : isom\n    minor_version   : 512\n    compatible_brands: isomiso2avc1mp41\n    encoder         : Lavf58.76.100\n  Stream #0:0(eng): Video: mjpeg, yuvj420p(pc, progressive), 960x540 [SAR 1:1 DAR 16:9], q=2-31, 200 kb/s, 30 fps, 30 tbn (default)\n    Metadata:\n      handler_name    : ?Mainconcept Video Media Handler\n      vendor_id       : [0][0][0][0]\n      encoder         : Lavc58.134.100 mjpeg\n    Side data:\n      cpb: bitrate max/min/avg: 0/0/200000 buffer size: 0 vbv_delay: N/A\nframe=  300 fps=191 q=2.0 Lsize=N/A time=00:00:10.00 bitrate=N/A speed=6.38x    \nvideo:19560kB audio:0kB subtitle:0kB other streams:0kB global headers:0kB muxing overhead: unknown\n","output_type":"stream"},{"name":"stdout","text":"[RUN] cats__vid5_960x540_30fps <- vid5_960x540_30fps.mp4\nffmpeg -n -i /kaggle/input/video-inpainting-small-dataset/cats/vid5_960x540_30fps.mp4 -vsync vfr -q:v 2 /kaggle/working/video_inpainting_frames_dataset/frames/cats/cats__vid5_960x540_30fps/%05d.jpg\n","output_type":"stream"},{"name":"stderr","text":"ffmpeg version 4.4.2-0ubuntu0.22.04.1 Copyright (c) 2000-2021 the FFmpeg developers\n  built with gcc 11 (Ubuntu 11.2.0-19ubuntu1)\n  configuration: --prefix=/usr --extra-version=0ubuntu0.22.04.1 --toolchain=hardened --libdir=/usr/lib/x86_64-linux-gnu --incdir=/usr/include/x86_64-linux-gnu --arch=amd64 --enable-gpl --disable-stripping --enable-gnutls --enable-ladspa --enable-libaom --enable-libass --enable-libbluray --enable-libbs2b --enable-libcaca --enable-libcdio --enable-libcodec2 --enable-libdav1d --enable-libflite --enable-libfontconfig --enable-libfreetype --enable-libfribidi --enable-libgme --enable-libgsm --enable-libjack --enable-libmp3lame --enable-libmysofa --enable-libopenjpeg --enable-libopenmpt --enable-libopus --enable-libpulse --enable-librabbitmq --enable-librubberband --enable-libshine --enable-libsnappy --enable-libsoxr --enable-libspeex --enable-libsrt --enable-libssh --enable-libtheora --enable-libtwolame --enable-libvidstab --enable-libvorbis --enable-libvpx --enable-libwebp --enable-libx265 --enable-libxml2 --enable-libxvid --enable-libzimg --enable-libzmq --enable-libzvbi --enable-lv2 --enable-omx --enable-openal --enable-opencl --enable-opengl --enable-sdl2 --enable-pocketsphinx --enable-librsvg --enable-libmfx --enable-libdc1394 --enable-libdrm --enable-libiec61883 --enable-chromaprint --enable-frei0r --enable-libx264 --enable-shared\n  libavutil      56. 70.100 / 56. 70.100\n  libavcodec     58.134.100 / 58.134.100\n  libavformat    58. 76.100 / 58. 76.100\n  libavdevice    58. 13.100 / 58. 13.100\n  libavfilter     7.110.100 /  7.110.100\n  libswscale      5.  9.100 /  5.  9.100\n  libswresample   3.  9.100 /  3.  9.100\n  libpostproc    55.  9.100 / 55.  9.100\nInput #0, mov,mp4,m4a,3gp,3g2,mj2, from '/kaggle/input/video-inpainting-small-dataset/cats/vid5_960x540_30fps.mp4':\n  Metadata:\n    major_brand     : isom\n    minor_version   : 512\n    compatible_brands: isomiso2avc1mp41\n    encoder         : Lavf61.7.100\n  Duration: 00:00:10.03, start: 0.000000, bitrate: 5252 kb/s\n  Stream #0:0(eng): Video: h264 (High) (avc1 / 0x31637661), yuv420p(tv, bt709), 960x540, 5249 kb/s, 30 fps, 30 tbr, 15360 tbn, 60 tbc (default)\n    Metadata:\n      handler_name    : VideoHandle\n      vendor_id       : [0][0][0][0]\n      encoder         : Lavc61.19.101 libx264\nStream mapping:\n  Stream #0:0 -> #0:0 (h264 (native) -> mjpeg (native))\nPress [q] to stop, [?] for help\n[swscaler @ 0x5a1ad5144240] deprecated pixel format used, make sure you did set range correctly\nOutput #0, image2, to '/kaggle/working/video_inpainting_frames_dataset/frames/cats/cats__vid5_960x540_30fps/%05d.jpg':\n  Metadata:\n    major_brand     : isom\n    minor_version   : 512\n    compatible_brands: isomiso2avc1mp41\n    encoder         : Lavf58.76.100\n  Stream #0:0(eng): Video: mjpeg, yuvj420p(pc, bt709, progressive), 960x540, q=2-31, 200 kb/s, 30 fps, 30 tbn (default)\n    Metadata:\n      handler_name    : VideoHandle\n      vendor_id       : [0][0][0][0]\n      encoder         : Lavc58.134.100 mjpeg\n    Side data:\n      cpb: bitrate max/min/avg: 0/0/200000 buffer size: 0 vbv_delay: N/A\nframe=  301 fps=144 q=2.0 Lsize=N/A time=00:00:10.03 bitrate=N/A speed=4.79x    \nvideo:49227kB audio:0kB subtitle:0kB other streams:0kB global headers:0kB muxing overhead: unknown\n","output_type":"stream"},{"name":"stdout","text":"[RUN] cats__vid6_960x540_30fps <- vid6_960x540_30fps.mp4\nffmpeg -n -i /kaggle/input/video-inpainting-small-dataset/cats/vid6_960x540_30fps.mp4 -vsync vfr -q:v 2 /kaggle/working/video_inpainting_frames_dataset/frames/cats/cats__vid6_960x540_30fps/%05d.jpg\n","output_type":"stream"},{"name":"stderr","text":"ffmpeg version 4.4.2-0ubuntu0.22.04.1 Copyright (c) 2000-2021 the FFmpeg developers\n  built with gcc 11 (Ubuntu 11.2.0-19ubuntu1)\n  configuration: --prefix=/usr --extra-version=0ubuntu0.22.04.1 --toolchain=hardened --libdir=/usr/lib/x86_64-linux-gnu --incdir=/usr/include/x86_64-linux-gnu --arch=amd64 --enable-gpl --disable-stripping --enable-gnutls --enable-ladspa --enable-libaom --enable-libass --enable-libbluray --enable-libbs2b --enable-libcaca --enable-libcdio --enable-libcodec2 --enable-libdav1d --enable-libflite --enable-libfontconfig --enable-libfreetype --enable-libfribidi --enable-libgme --enable-libgsm --enable-libjack --enable-libmp3lame --enable-libmysofa --enable-libopenjpeg --enable-libopenmpt --enable-libopus --enable-libpulse --enable-librabbitmq --enable-librubberband --enable-libshine --enable-libsnappy --enable-libsoxr --enable-libspeex --enable-libsrt --enable-libssh --enable-libtheora --enable-libtwolame --enable-libvidstab --enable-libvorbis --enable-libvpx --enable-libwebp --enable-libx265 --enable-libxml2 --enable-libxvid --enable-libzimg --enable-libzmq --enable-libzvbi --enable-lv2 --enable-omx --enable-openal --enable-opencl --enable-opengl --enable-sdl2 --enable-pocketsphinx --enable-librsvg --enable-libmfx --enable-libdc1394 --enable-libdrm --enable-libiec61883 --enable-chromaprint --enable-frei0r --enable-libx264 --enable-shared\n  libavutil      56. 70.100 / 56. 70.100\n  libavcodec     58.134.100 / 58.134.100\n  libavformat    58. 76.100 / 58. 76.100\n  libavdevice    58. 13.100 / 58. 13.100\n  libavfilter     7.110.100 /  7.110.100\n  libswscale      5.  9.100 /  5.  9.100\n  libswresample   3.  9.100 /  3.  9.100\n  libpostproc    55.  9.100 / 55.  9.100\nInput #0, mov,mp4,m4a,3gp,3g2,mj2, from '/kaggle/input/video-inpainting-small-dataset/cats/vid6_960x540_30fps.mp4':\n  Metadata:\n    major_brand     : isom\n    minor_version   : 512\n    compatible_brands: isomiso2avc1mp41\n    encoder         : Lavf61.7.100\n  Duration: 00:00:10.00, start: 0.000000, bitrate: 6021 kb/s\n  Stream #0:0(eng): Video: h264 (High) (avc1 / 0x31637661), yuv420p, 960x540 [SAR 1:1 DAR 16:9], 6017 kb/s, 30 fps, 30 tbr, 15360 tbn, 60 tbc (default)\n    Metadata:\n      handler_name    : ?Mainconcept Video Media Handler\n      vendor_id       : [0][0][0][0]\n      encoder         : Lavc61.19.101 libx264\nStream mapping:\n  Stream #0:0 -> #0:0 (h264 (native) -> mjpeg (native))\nPress [q] to stop, [?] for help\n[swscaler @ 0x5b2be615adc0] deprecated pixel format used, make sure you did set range correctly\nOutput #0, image2, to '/kaggle/working/video_inpainting_frames_dataset/frames/cats/cats__vid6_960x540_30fps/%05d.jpg':\n  Metadata:\n    major_brand     : isom\n    minor_version   : 512\n    compatible_brands: isomiso2avc1mp41\n    encoder         : Lavf58.76.100\n  Stream #0:0(eng): Video: mjpeg, yuvj420p(pc, progressive), 960x540 [SAR 1:1 DAR 16:9], q=2-31, 200 kb/s, 30 fps, 30 tbn (default)\n    Metadata:\n      handler_name    : ?Mainconcept Video Media Handler\n      vendor_id       : [0][0][0][0]\n      encoder         : Lavc58.134.100 mjpeg\n    Side data:\n      cpb: bitrate max/min/avg: 0/0/200000 buffer size: 0 vbv_delay: N/A\nframe=  300 fps=130 q=2.0 Lsize=N/A time=00:00:10.00 bitrate=N/A speed=4.34x    \nvideo:60437kB audio:0kB subtitle:0kB other streams:0kB global headers:0kB muxing overhead: unknown\n","output_type":"stream"},{"name":"stdout","text":"\n=== Category: cars | videos found: 6 ===\n[RUN] cars__vid1_960x540_30fps_10s <- vid1_960x540_30fps_10s.mp4\nffmpeg -n -i /kaggle/input/video-inpainting-small-dataset/cars/vid1_960x540_30fps_10s.mp4 -vsync vfr -q:v 2 /kaggle/working/video_inpainting_frames_dataset/frames/cars/cars__vid1_960x540_30fps_10s/%05d.jpg\n","output_type":"stream"},{"name":"stderr","text":"ffmpeg version 4.4.2-0ubuntu0.22.04.1 Copyright (c) 2000-2021 the FFmpeg developers\n  built with gcc 11 (Ubuntu 11.2.0-19ubuntu1)\n  configuration: --prefix=/usr --extra-version=0ubuntu0.22.04.1 --toolchain=hardened --libdir=/usr/lib/x86_64-linux-gnu --incdir=/usr/include/x86_64-linux-gnu --arch=amd64 --enable-gpl --disable-stripping --enable-gnutls --enable-ladspa --enable-libaom --enable-libass --enable-libbluray --enable-libbs2b --enable-libcaca --enable-libcdio --enable-libcodec2 --enable-libdav1d --enable-libflite --enable-libfontconfig --enable-libfreetype --enable-libfribidi --enable-libgme --enable-libgsm --enable-libjack --enable-libmp3lame --enable-libmysofa --enable-libopenjpeg --enable-libopenmpt --enable-libopus --enable-libpulse --enable-librabbitmq --enable-librubberband --enable-libshine --enable-libsnappy --enable-libsoxr --enable-libspeex --enable-libsrt --enable-libssh --enable-libtheora --enable-libtwolame --enable-libvidstab --enable-libvorbis --enable-libvpx --enable-libwebp --enable-libx265 --enable-libxml2 --enable-libxvid --enable-libzimg --enable-libzmq --enable-libzvbi --enable-lv2 --enable-omx --enable-openal --enable-opencl --enable-opengl --enable-sdl2 --enable-pocketsphinx --enable-librsvg --enable-libmfx --enable-libdc1394 --enable-libdrm --enable-libiec61883 --enable-chromaprint --enable-frei0r --enable-libx264 --enable-shared\n  libavutil      56. 70.100 / 56. 70.100\n  libavcodec     58.134.100 / 58.134.100\n  libavformat    58. 76.100 / 58. 76.100\n  libavdevice    58. 13.100 / 58. 13.100\n  libavfilter     7.110.100 /  7.110.100\n  libswscale      5.  9.100 /  5.  9.100\n  libswresample   3.  9.100 /  3.  9.100\n  libpostproc    55.  9.100 / 55.  9.100\nInput #0, mov,mp4,m4a,3gp,3g2,mj2, from '/kaggle/input/video-inpainting-small-dataset/cars/vid1_960x540_30fps_10s.mp4':\n  Metadata:\n    major_brand     : isom\n    minor_version   : 512\n    compatible_brands: isomiso2avc1mp41\n    encoder         : Lavf61.7.100\n  Duration: 00:00:10.00, start: 0.000000, bitrate: 2577 kb/s\n  Stream #0:0(und): Video: h264 (High) (avc1 / 0x31637661), yuv420p(tv, bt709), 960x540 [SAR 1:1 DAR 16:9], 2573 kb/s, 30 fps, 30 tbr, 15360 tbn, 60 tbc (default)\n    Metadata:\n      handler_name    : Core Media Video\n      vendor_id       : [0][0][0][0]\n      encoder         : Lavc61.19.101 libx264\nStream mapping:\n  Stream #0:0 -> #0:0 (h264 (native) -> mjpeg (native))\nPress [q] to stop, [?] for help\n[swscaler @ 0x5b615d66e740] deprecated pixel format used, make sure you did set range correctly\nOutput #0, image2, to '/kaggle/working/video_inpainting_frames_dataset/frames/cars/cars__vid1_960x540_30fps_10s/%05d.jpg':\n  Metadata:\n    major_brand     : isom\n    minor_version   : 512\n    compatible_brands: isomiso2avc1mp41\n    encoder         : Lavf58.76.100\n  Stream #0:0(und): Video: mjpeg, yuvj420p(pc, bt709, progressive), 960x540 [SAR 1:1 DAR 16:9], q=2-31, 200 kb/s, 30 fps, 30 tbn (default)\n    Metadata:\n      handler_name    : Core Media Video\n      vendor_id       : [0][0][0][0]\n      encoder         : Lavc58.134.100 mjpeg\n    Side data:\n      cpb: bitrate max/min/avg: 0/0/200000 buffer size: 0 vbv_delay: N/A\nframe=  300 fps=202 q=2.0 Lsize=N/A time=00:00:10.00 bitrate=N/A speed=6.75x    \nvideo:17097kB audio:0kB subtitle:0kB other streams:0kB global headers:0kB muxing overhead: unknown\n","output_type":"stream"},{"name":"stdout","text":"[RUN] cars__vid2_960x540_30fps_10s <- vid2_960x540_30fps_10s.mp4\nffmpeg -n -i /kaggle/input/video-inpainting-small-dataset/cars/vid2_960x540_30fps_10s.mp4 -vsync vfr -q:v 2 /kaggle/working/video_inpainting_frames_dataset/frames/cars/cars__vid2_960x540_30fps_10s/%05d.jpg\n","output_type":"stream"},{"name":"stderr","text":"ffmpeg version 4.4.2-0ubuntu0.22.04.1 Copyright (c) 2000-2021 the FFmpeg developers\n  built with gcc 11 (Ubuntu 11.2.0-19ubuntu1)\n  configuration: --prefix=/usr --extra-version=0ubuntu0.22.04.1 --toolchain=hardened --libdir=/usr/lib/x86_64-linux-gnu --incdir=/usr/include/x86_64-linux-gnu --arch=amd64 --enable-gpl --disable-stripping --enable-gnutls --enable-ladspa --enable-libaom --enable-libass --enable-libbluray --enable-libbs2b --enable-libcaca --enable-libcdio --enable-libcodec2 --enable-libdav1d --enable-libflite --enable-libfontconfig --enable-libfreetype --enable-libfribidi --enable-libgme --enable-libgsm --enable-libjack --enable-libmp3lame --enable-libmysofa --enable-libopenjpeg --enable-libopenmpt --enable-libopus --enable-libpulse --enable-librabbitmq --enable-librubberband --enable-libshine --enable-libsnappy --enable-libsoxr --enable-libspeex --enable-libsrt --enable-libssh --enable-libtheora --enable-libtwolame --enable-libvidstab --enable-libvorbis --enable-libvpx --enable-libwebp --enable-libx265 --enable-libxml2 --enable-libxvid --enable-libzimg --enable-libzmq --enable-libzvbi --enable-lv2 --enable-omx --enable-openal --enable-opencl --enable-opengl --enable-sdl2 --enable-pocketsphinx --enable-librsvg --enable-libmfx --enable-libdc1394 --enable-libdrm --enable-libiec61883 --enable-chromaprint --enable-frei0r --enable-libx264 --enable-shared\n  libavutil      56. 70.100 / 56. 70.100\n  libavcodec     58.134.100 / 58.134.100\n  libavformat    58. 76.100 / 58. 76.100\n  libavdevice    58. 13.100 / 58. 13.100\n  libavfilter     7.110.100 /  7.110.100\n  libswscale      5.  9.100 /  5.  9.100\n  libswresample   3.  9.100 /  3.  9.100\n  libpostproc    55.  9.100 / 55.  9.100\nInput #0, mov,mp4,m4a,3gp,3g2,mj2, from '/kaggle/input/video-inpainting-small-dataset/cars/vid2_960x540_30fps_10s.mp4':\n  Metadata:\n    major_brand     : isom\n    minor_version   : 512\n    compatible_brands: isomiso2avc1mp41\n    encoder         : Lavf61.7.100\n  Duration: 00:00:10.00, start: 0.000000, bitrate: 4979 kb/s\n  Stream #0:0(eng): Video: h264 (High) (avc1 / 0x31637661), yuv420p(tv, bt709), 960x540 [SAR 1:1 DAR 16:9], 4975 kb/s, 30 fps, 30 tbr, 15360 tbn, 60 tbc (default)\n    Metadata:\n      handler_name    : ?Mainconcept Video Media Handler\n      vendor_id       : [0][0][0][0]\n      encoder         : Lavc61.19.101 libx264\nStream mapping:\n  Stream #0:0 -> #0:0 (h264 (native) -> mjpeg (native))\nPress [q] to stop, [?] for help\n[swscaler @ 0x5aec3b9a1200] deprecated pixel format used, make sure you did set range correctly\nOutput #0, image2, to '/kaggle/working/video_inpainting_frames_dataset/frames/cars/cars__vid2_960x540_30fps_10s/%05d.jpg':\n  Metadata:\n    major_brand     : isom\n    minor_version   : 512\n    compatible_brands: isomiso2avc1mp41\n    encoder         : Lavf58.76.100\n  Stream #0:0(eng): Video: mjpeg, yuvj420p(pc, bt709, progressive), 960x540 [SAR 1:1 DAR 16:9], q=2-31, 200 kb/s, 30 fps, 30 tbn (default)\n    Metadata:\n      handler_name    : ?Mainconcept Video Media Handler\n      vendor_id       : [0][0][0][0]\n      encoder         : Lavc58.134.100 mjpeg\n    Side data:\n      cpb: bitrate max/min/avg: 0/0/200000 buffer size: 0 vbv_delay: N/A\nframe=  300 fps=199 q=2.0 Lsize=N/A time=00:00:10.00 bitrate=N/A speed=6.63x    \nvideo:21777kB audio:0kB subtitle:0kB other streams:0kB global headers:0kB muxing overhead: unknown\n","output_type":"stream"},{"name":"stdout","text":"[RUN] cars__vid3_540x960_30fps_10s <- vid3_540x960_30fps_10s.mp4\nffmpeg -n -i /kaggle/input/video-inpainting-small-dataset/cars/vid3_540x960_30fps_10s.mp4 -vsync vfr -q:v 2 /kaggle/working/video_inpainting_frames_dataset/frames/cars/cars__vid3_540x960_30fps_10s/%05d.jpg\n","output_type":"stream"},{"name":"stderr","text":"ffmpeg version 4.4.2-0ubuntu0.22.04.1 Copyright (c) 2000-2021 the FFmpeg developers\n  built with gcc 11 (Ubuntu 11.2.0-19ubuntu1)\n  configuration: --prefix=/usr --extra-version=0ubuntu0.22.04.1 --toolchain=hardened --libdir=/usr/lib/x86_64-linux-gnu --incdir=/usr/include/x86_64-linux-gnu --arch=amd64 --enable-gpl --disable-stripping --enable-gnutls --enable-ladspa --enable-libaom --enable-libass --enable-libbluray --enable-libbs2b --enable-libcaca --enable-libcdio --enable-libcodec2 --enable-libdav1d --enable-libflite --enable-libfontconfig --enable-libfreetype --enable-libfribidi --enable-libgme --enable-libgsm --enable-libjack --enable-libmp3lame --enable-libmysofa --enable-libopenjpeg --enable-libopenmpt --enable-libopus --enable-libpulse --enable-librabbitmq --enable-librubberband --enable-libshine --enable-libsnappy --enable-libsoxr --enable-libspeex --enable-libsrt --enable-libssh --enable-libtheora --enable-libtwolame --enable-libvidstab --enable-libvorbis --enable-libvpx --enable-libwebp --enable-libx265 --enable-libxml2 --enable-libxvid --enable-libzimg --enable-libzmq --enable-libzvbi --enable-lv2 --enable-omx --enable-openal --enable-opencl --enable-opengl --enable-sdl2 --enable-pocketsphinx --enable-librsvg --enable-libmfx --enable-libdc1394 --enable-libdrm --enable-libiec61883 --enable-chromaprint --enable-frei0r --enable-libx264 --enable-shared\n  libavutil      56. 70.100 / 56. 70.100\n  libavcodec     58.134.100 / 58.134.100\n  libavformat    58. 76.100 / 58. 76.100\n  libavdevice    58. 13.100 / 58. 13.100\n  libavfilter     7.110.100 /  7.110.100\n  libswscale      5.  9.100 /  5.  9.100\n  libswresample   3.  9.100 /  3.  9.100\n  libpostproc    55.  9.100 / 55.  9.100\nInput #0, mov,mp4,m4a,3gp,3g2,mj2, from '/kaggle/input/video-inpainting-small-dataset/cars/vid3_540x960_30fps_10s.mp4':\n  Metadata:\n    major_brand     : isom\n    minor_version   : 512\n    compatible_brands: isomiso2avc1mp41\n    encoder         : Lavf61.7.100\n  Duration: 00:00:10.00, start: 0.000000, bitrate: 3133 kb/s\n  Stream #0:0(eng): Video: h264 (High) (avc1 / 0x31637661), yuv420p(tv, bt470bg/bt470bg/smpte170m), 540x960 [SAR 1:1 DAR 9:16], 3130 kb/s, 30 fps, 30 tbr, 15360 tbn, 60 tbc (default)\n    Metadata:\n      handler_name    : VideoHandle\n      vendor_id       : [0][0][0][0]\n      encoder         : Lavc61.19.101 libx264\nStream mapping:\n  Stream #0:0 -> #0:0 (h264 (native) -> mjpeg (native))\nPress [q] to stop, [?] for help\n[swscaler @ 0x59f058d53d00] deprecated pixel format used, make sure you did set range correctly\nOutput #0, image2, to '/kaggle/working/video_inpainting_frames_dataset/frames/cars/cars__vid3_540x960_30fps_10s/%05d.jpg':\n  Metadata:\n    major_brand     : isom\n    minor_version   : 512\n    compatible_brands: isomiso2avc1mp41\n    encoder         : Lavf58.76.100\n  Stream #0:0(eng): Video: mjpeg, yuvj420p(pc, bt470bg/bt470bg/smpte170m, progressive), 540x960 [SAR 1:1 DAR 9:16], q=2-31, 200 kb/s, 30 fps, 30 tbn (default)\n    Metadata:\n      handler_name    : VideoHandle\n      vendor_id       : [0][0][0][0]\n      encoder         : Lavc58.134.100 mjpeg\n    Side data:\n      cpb: bitrate max/min/avg: 0/0/200000 buffer size: 0 vbv_delay: N/A\nframe=  300 fps=196 q=2.0 Lsize=N/A time=00:00:10.00 bitrate=N/A speed=6.54x    \nvideo:23700kB audio:0kB subtitle:0kB other streams:0kB global headers:0kB muxing overhead: unknown\n","output_type":"stream"},{"name":"stdout","text":"[RUN] cars__vid4_960x540_30fps_10s <- vid4_960x540_30fps_10s.mp4\nffmpeg -n -i /kaggle/input/video-inpainting-small-dataset/cars/vid4_960x540_30fps_10s.mp4 -vsync vfr -q:v 2 /kaggle/working/video_inpainting_frames_dataset/frames/cars/cars__vid4_960x540_30fps_10s/%05d.jpg\n","output_type":"stream"},{"name":"stderr","text":"ffmpeg version 4.4.2-0ubuntu0.22.04.1 Copyright (c) 2000-2021 the FFmpeg developers\n  built with gcc 11 (Ubuntu 11.2.0-19ubuntu1)\n  configuration: --prefix=/usr --extra-version=0ubuntu0.22.04.1 --toolchain=hardened --libdir=/usr/lib/x86_64-linux-gnu --incdir=/usr/include/x86_64-linux-gnu --arch=amd64 --enable-gpl --disable-stripping --enable-gnutls --enable-ladspa --enable-libaom --enable-libass --enable-libbluray --enable-libbs2b --enable-libcaca --enable-libcdio --enable-libcodec2 --enable-libdav1d --enable-libflite --enable-libfontconfig --enable-libfreetype --enable-libfribidi --enable-libgme --enable-libgsm --enable-libjack --enable-libmp3lame --enable-libmysofa --enable-libopenjpeg --enable-libopenmpt --enable-libopus --enable-libpulse --enable-librabbitmq --enable-librubberband --enable-libshine --enable-libsnappy --enable-libsoxr --enable-libspeex --enable-libsrt --enable-libssh --enable-libtheora --enable-libtwolame --enable-libvidstab --enable-libvorbis --enable-libvpx --enable-libwebp --enable-libx265 --enable-libxml2 --enable-libxvid --enable-libzimg --enable-libzmq --enable-libzvbi --enable-lv2 --enable-omx --enable-openal --enable-opencl --enable-opengl --enable-sdl2 --enable-pocketsphinx --enable-librsvg --enable-libmfx --enable-libdc1394 --enable-libdrm --enable-libiec61883 --enable-chromaprint --enable-frei0r --enable-libx264 --enable-shared\n  libavutil      56. 70.100 / 56. 70.100\n  libavcodec     58.134.100 / 58.134.100\n  libavformat    58. 76.100 / 58. 76.100\n  libavdevice    58. 13.100 / 58. 13.100\n  libavfilter     7.110.100 /  7.110.100\n  libswscale      5.  9.100 /  5.  9.100\n  libswresample   3.  9.100 /  3.  9.100\n  libpostproc    55.  9.100 / 55.  9.100\nInput #0, mov,mp4,m4a,3gp,3g2,mj2, from '/kaggle/input/video-inpainting-small-dataset/cars/vid4_960x540_30fps_10s.mp4':\n  Metadata:\n    major_brand     : isom\n    minor_version   : 512\n    compatible_brands: isomiso2avc1mp41\n    encoder         : Lavf61.7.100\n    comment         : Create videos with https://clipchamp.com/en/video-editor - free online video editor, video compressor, video converter.\n  Duration: 00:00:10.00, start: 0.000000, bitrate: 2080 kb/s\n  Stream #0:0(und): Video: h264 (High) (avc1 / 0x31637661), yuv420p(tv, bt709), 960x540 [SAR 1:1 DAR 16:9], 2077 kb/s, 30 fps, 30 tbr, 15360 tbn, 60 tbc (default)\n    Metadata:\n      handler_name    : VideoHandler\n      vendor_id       : [0][0][0][0]\n      encoder         : Lavc61.19.101 libx264\nStream mapping:\n  Stream #0:0 -> #0:0 (h264 (native) -> mjpeg (native))\nPress [q] to stop, [?] for help\n[swscaler @ 0x55efb610c840] deprecated pixel format used, make sure you did set range correctly\nOutput #0, image2, to '/kaggle/working/video_inpainting_frames_dataset/frames/cars/cars__vid4_960x540_30fps_10s/%05d.jpg':\n  Metadata:\n    major_brand     : isom\n    minor_version   : 512\n    compatible_brands: isomiso2avc1mp41\n    comment         : Create videos with https://clipchamp.com/en/video-editor - free online video editor, video compressor, video converter.\n    encoder         : Lavf58.76.100\n  Stream #0:0(und): Video: mjpeg, yuvj420p(pc, bt709, progressive), 960x540 [SAR 1:1 DAR 16:9], q=2-31, 200 kb/s, 30 fps, 30 tbn (default)\n    Metadata:\n      handler_name    : VideoHandler\n      vendor_id       : [0][0][0][0]\n      encoder         : Lavc58.134.100 mjpeg\n    Side data:\n      cpb: bitrate max/min/avg: 0/0/200000 buffer size: 0 vbv_delay: N/A\nframe=  300 fps=226 q=2.0 Lsize=N/A time=00:00:10.00 bitrate=N/A speed=7.53x    \nvideo:19863kB audio:0kB subtitle:0kB other streams:0kB global headers:0kB muxing overhead: unknown\n","output_type":"stream"},{"name":"stdout","text":"[RUN] cars__vid5_960x540_30fps_10s <- vid5_960x540_30fps_10s.mp4\nffmpeg -n -i /kaggle/input/video-inpainting-small-dataset/cars/vid5_960x540_30fps_10s.mp4 -vsync vfr -q:v 2 /kaggle/working/video_inpainting_frames_dataset/frames/cars/cars__vid5_960x540_30fps_10s/%05d.jpg\n","output_type":"stream"},{"name":"stderr","text":"ffmpeg version 4.4.2-0ubuntu0.22.04.1 Copyright (c) 2000-2021 the FFmpeg developers\n  built with gcc 11 (Ubuntu 11.2.0-19ubuntu1)\n  configuration: --prefix=/usr --extra-version=0ubuntu0.22.04.1 --toolchain=hardened --libdir=/usr/lib/x86_64-linux-gnu --incdir=/usr/include/x86_64-linux-gnu --arch=amd64 --enable-gpl --disable-stripping --enable-gnutls --enable-ladspa --enable-libaom --enable-libass --enable-libbluray --enable-libbs2b --enable-libcaca --enable-libcdio --enable-libcodec2 --enable-libdav1d --enable-libflite --enable-libfontconfig --enable-libfreetype --enable-libfribidi --enable-libgme --enable-libgsm --enable-libjack --enable-libmp3lame --enable-libmysofa --enable-libopenjpeg --enable-libopenmpt --enable-libopus --enable-libpulse --enable-librabbitmq --enable-librubberband --enable-libshine --enable-libsnappy --enable-libsoxr --enable-libspeex --enable-libsrt --enable-libssh --enable-libtheora --enable-libtwolame --enable-libvidstab --enable-libvorbis --enable-libvpx --enable-libwebp --enable-libx265 --enable-libxml2 --enable-libxvid --enable-libzimg --enable-libzmq --enable-libzvbi --enable-lv2 --enable-omx --enable-openal --enable-opencl --enable-opengl --enable-sdl2 --enable-pocketsphinx --enable-librsvg --enable-libmfx --enable-libdc1394 --enable-libdrm --enable-libiec61883 --enable-chromaprint --enable-frei0r --enable-libx264 --enable-shared\n  libavutil      56. 70.100 / 56. 70.100\n  libavcodec     58.134.100 / 58.134.100\n  libavformat    58. 76.100 / 58. 76.100\n  libavdevice    58. 13.100 / 58. 13.100\n  libavfilter     7.110.100 /  7.110.100\n  libswscale      5.  9.100 /  5.  9.100\n  libswresample   3.  9.100 /  3.  9.100\n  libpostproc    55.  9.100 / 55.  9.100\nInput #0, mov,mp4,m4a,3gp,3g2,mj2, from '/kaggle/input/video-inpainting-small-dataset/cars/vid5_960x540_30fps_10s.mp4':\n  Metadata:\n    major_brand     : isom\n    minor_version   : 512\n    compatible_brands: isomiso2avc1mp41\n    encoder         : Lavf61.7.100\n  Duration: 00:00:10.00, start: 0.000000, bitrate: 5451 kb/s\n  Stream #0:0(und): Video: h264 (High) (avc1 / 0x31637661), yuv420p(tv, bt709), 960x540 [SAR 1:1 DAR 16:9], 5447 kb/s, 30 fps, 30 tbr, 15360 tbn, 60 tbc (default)\n    Metadata:\n      handler_name    : L-SMASH Video Handler\n      vendor_id       : [0][0][0][0]\n      encoder         : Lavc61.19.101 libx264\nStream mapping:\n  Stream #0:0 -> #0:0 (h264 (native) -> mjpeg (native))\nPress [q] to stop, [?] for help\n[swscaler @ 0x56ca919e16c0] deprecated pixel format used, make sure you did set range correctly\nOutput #0, image2, to '/kaggle/working/video_inpainting_frames_dataset/frames/cars/cars__vid5_960x540_30fps_10s/%05d.jpg':\n  Metadata:\n    major_brand     : isom\n    minor_version   : 512\n    compatible_brands: isomiso2avc1mp41\n    encoder         : Lavf58.76.100\n  Stream #0:0(und): Video: mjpeg, yuvj420p(pc, bt709, progressive), 960x540 [SAR 1:1 DAR 16:9], q=2-31, 200 kb/s, 30 fps, 30 tbn (default)\n    Metadata:\n      handler_name    : L-SMASH Video Handler\n      vendor_id       : [0][0][0][0]\n      encoder         : Lavc58.134.100 mjpeg\n    Side data:\n      cpb: bitrate max/min/avg: 0/0/200000 buffer size: 0 vbv_delay: N/A\nframe=  300 fps=187 q=2.0 Lsize=N/A time=00:00:10.00 bitrate=N/A speed=6.22x    \nvideo:28785kB audio:0kB subtitle:0kB other streams:0kB global headers:0kB muxing overhead: unknown\n","output_type":"stream"},{"name":"stdout","text":"[RUN] cars__vid6_960x540_30fps_10s <- vid6_960x540_30fps_10s.mp4\nffmpeg -n -i /kaggle/input/video-inpainting-small-dataset/cars/vid6_960x540_30fps_10s.mp4 -vsync vfr -q:v 2 /kaggle/working/video_inpainting_frames_dataset/frames/cars/cars__vid6_960x540_30fps_10s/%05d.jpg\n","output_type":"stream"},{"name":"stderr","text":"ffmpeg version 4.4.2-0ubuntu0.22.04.1 Copyright (c) 2000-2021 the FFmpeg developers\n  built with gcc 11 (Ubuntu 11.2.0-19ubuntu1)\n  configuration: --prefix=/usr --extra-version=0ubuntu0.22.04.1 --toolchain=hardened --libdir=/usr/lib/x86_64-linux-gnu --incdir=/usr/include/x86_64-linux-gnu --arch=amd64 --enable-gpl --disable-stripping --enable-gnutls --enable-ladspa --enable-libaom --enable-libass --enable-libbluray --enable-libbs2b --enable-libcaca --enable-libcdio --enable-libcodec2 --enable-libdav1d --enable-libflite --enable-libfontconfig --enable-libfreetype --enable-libfribidi --enable-libgme --enable-libgsm --enable-libjack --enable-libmp3lame --enable-libmysofa --enable-libopenjpeg --enable-libopenmpt --enable-libopus --enable-libpulse --enable-librabbitmq --enable-librubberband --enable-libshine --enable-libsnappy --enable-libsoxr --enable-libspeex --enable-libsrt --enable-libssh --enable-libtheora --enable-libtwolame --enable-libvidstab --enable-libvorbis --enable-libvpx --enable-libwebp --enable-libx265 --enable-libxml2 --enable-libxvid --enable-libzimg --enable-libzmq --enable-libzvbi --enable-lv2 --enable-omx --enable-openal --enable-opencl --enable-opengl --enable-sdl2 --enable-pocketsphinx --enable-librsvg --enable-libmfx --enable-libdc1394 --enable-libdrm --enable-libiec61883 --enable-chromaprint --enable-frei0r --enable-libx264 --enable-shared\n  libavutil      56. 70.100 / 56. 70.100\n  libavcodec     58.134.100 / 58.134.100\n  libavformat    58. 76.100 / 58. 76.100\n  libavdevice    58. 13.100 / 58. 13.100\n  libavfilter     7.110.100 /  7.110.100\n  libswscale      5.  9.100 /  5.  9.100\n  libswresample   3.  9.100 /  3.  9.100\n  libpostproc    55.  9.100 / 55.  9.100\nInput #0, mov,mp4,m4a,3gp,3g2,mj2, from '/kaggle/input/video-inpainting-small-dataset/cars/vid6_960x540_30fps_10s.mp4':\n  Metadata:\n    major_brand     : isom\n    minor_version   : 512\n    compatible_brands: isomiso2avc1mp41\n    encoder         : Lavf61.7.100\n  Duration: 00:00:09.93, start: 0.000000, bitrate: 1366 kb/s\n  Stream #0:0(und): Video: h264 (High) (avc1 / 0x31637661), yuv420p(tv, bt709), 960x540 [SAR 1:1 DAR 16:9], 1362 kb/s, 30 fps, 30 tbr, 15360 tbn, 60 tbc (default)\n    Metadata:\n      handler_name    : Vimeo Artax Video Handler\n      vendor_id       : [0][0][0][0]\n      encoder         : Lavc61.19.101 libx264\nStream mapping:\n  Stream #0:0 -> #0:0 (h264 (native) -> mjpeg (native))\nPress [q] to stop, [?] for help\n[swscaler @ 0x5778c9f65d00] deprecated pixel format used, make sure you did set range correctly\nOutput #0, image2, to '/kaggle/working/video_inpainting_frames_dataset/frames/cars/cars__vid6_960x540_30fps_10s/%05d.jpg':\n  Metadata:\n    major_brand     : isom\n    minor_version   : 512\n    compatible_brands: isomiso2avc1mp41\n    encoder         : Lavf58.76.100\n  Stream #0:0(und): Video: mjpeg, yuvj420p(pc, bt709, progressive), 960x540 [SAR 1:1 DAR 16:9], q=2-31, 200 kb/s, 30 fps, 30 tbn (default)\n    Metadata:\n      handler_name    : Vimeo Artax Video Handler\n      vendor_id       : [0][0][0][0]\n      encoder         : Lavc58.134.100 mjpeg\n    Side data:\n      cpb: bitrate max/min/avg: 0/0/200000 buffer size: 0 vbv_delay: N/A\nframe=  298 fps=237 q=2.0 Lsize=N/A time=00:00:09.93 bitrate=N/A speed=7.91x    \nvideo:15145kB audio:0kB subtitle:0kB other streams:0kB global headers:0kB muxing overhead: unknown\n","output_type":"stream"},{"name":"stdout","text":"\n=== Category: humans | videos found: 6 ===\n[RUN] humans__vid1_540x960_30fps_10s <- vid1_540x960_30fps_10s.mp4\nffmpeg -n -i /kaggle/input/video-inpainting-small-dataset/humans/vid1_540x960_30fps_10s.mp4 -vsync vfr -q:v 2 /kaggle/working/video_inpainting_frames_dataset/frames/humans/humans__vid1_540x960_30fps_10s/%05d.jpg\n","output_type":"stream"},{"name":"stderr","text":"ffmpeg version 4.4.2-0ubuntu0.22.04.1 Copyright (c) 2000-2021 the FFmpeg developers\n  built with gcc 11 (Ubuntu 11.2.0-19ubuntu1)\n  configuration: --prefix=/usr --extra-version=0ubuntu0.22.04.1 --toolchain=hardened --libdir=/usr/lib/x86_64-linux-gnu --incdir=/usr/include/x86_64-linux-gnu --arch=amd64 --enable-gpl --disable-stripping --enable-gnutls --enable-ladspa --enable-libaom --enable-libass --enable-libbluray --enable-libbs2b --enable-libcaca --enable-libcdio --enable-libcodec2 --enable-libdav1d --enable-libflite --enable-libfontconfig --enable-libfreetype --enable-libfribidi --enable-libgme --enable-libgsm --enable-libjack --enable-libmp3lame --enable-libmysofa --enable-libopenjpeg --enable-libopenmpt --enable-libopus --enable-libpulse --enable-librabbitmq --enable-librubberband --enable-libshine --enable-libsnappy --enable-libsoxr --enable-libspeex --enable-libsrt --enable-libssh --enable-libtheora --enable-libtwolame --enable-libvidstab --enable-libvorbis --enable-libvpx --enable-libwebp --enable-libx265 --enable-libxml2 --enable-libxvid --enable-libzimg --enable-libzmq --enable-libzvbi --enable-lv2 --enable-omx --enable-openal --enable-opencl --enable-opengl --enable-sdl2 --enable-pocketsphinx --enable-librsvg --enable-libmfx --enable-libdc1394 --enable-libdrm --enable-libiec61883 --enable-chromaprint --enable-frei0r --enable-libx264 --enable-shared\n  libavutil      56. 70.100 / 56. 70.100\n  libavcodec     58.134.100 / 58.134.100\n  libavformat    58. 76.100 / 58. 76.100\n  libavdevice    58. 13.100 / 58. 13.100\n  libavfilter     7.110.100 /  7.110.100\n  libswscale      5.  9.100 /  5.  9.100\n  libswresample   3.  9.100 /  3.  9.100\n  libpostproc    55.  9.100 / 55.  9.100\nInput #0, mov,mp4,m4a,3gp,3g2,mj2, from '/kaggle/input/video-inpainting-small-dataset/humans/vid1_540x960_30fps_10s.mp4':\n  Metadata:\n    major_brand     : isom\n    minor_version   : 512\n    compatible_brands: isomiso2avc1mp41\n    encoder         : Lavf61.7.100\n  Duration: 00:00:10.00, start: 0.000000, bitrate: 2939 kb/s\n  Stream #0:0(und): Video: h264 (High) (avc1 / 0x31637661), yuv420p(tv, bt709), 540x960 [SAR 1:1 DAR 9:16], 2936 kb/s, 30 fps, 30 tbr, 15360 tbn, 60 tbc (default)\n    Metadata:\n      handler_name    : VideoHandler\n      vendor_id       : [0][0][0][0]\n      encoder         : Lavc61.19.101 libx264\nStream mapping:\n  Stream #0:0 -> #0:0 (h264 (native) -> mjpeg (native))\nPress [q] to stop, [?] for help\n[swscaler @ 0x5a55fc865cc0] deprecated pixel format used, make sure you did set range correctly\nOutput #0, image2, to '/kaggle/working/video_inpainting_frames_dataset/frames/humans/humans__vid1_540x960_30fps_10s/%05d.jpg':\n  Metadata:\n    major_brand     : isom\n    minor_version   : 512\n    compatible_brands: isomiso2avc1mp41\n    encoder         : Lavf58.76.100\n  Stream #0:0(und): Video: mjpeg, yuvj420p(pc, bt709, progressive), 540x960 [SAR 1:1 DAR 9:16], q=2-31, 200 kb/s, 30 fps, 30 tbn (default)\n    Metadata:\n      handler_name    : VideoHandler\n      vendor_id       : [0][0][0][0]\n      encoder         : Lavc58.134.100 mjpeg\n    Side data:\n      cpb: bitrate max/min/avg: 0/0/200000 buffer size: 0 vbv_delay: N/A\nframe=  300 fps=212 q=2.0 Lsize=N/A time=00:00:10.00 bitrate=N/A speed=7.07x    \nvideo:17248kB audio:0kB subtitle:0kB other streams:0kB global headers:0kB muxing overhead: unknown\n","output_type":"stream"},{"name":"stdout","text":"[RUN] humans__vid2_540x960_30fps_10s <- vid2_540x960_30fps_10s.mp4\nffmpeg -n -i /kaggle/input/video-inpainting-small-dataset/humans/vid2_540x960_30fps_10s.mp4 -vsync vfr -q:v 2 /kaggle/working/video_inpainting_frames_dataset/frames/humans/humans__vid2_540x960_30fps_10s/%05d.jpg\n","output_type":"stream"},{"name":"stderr","text":"ffmpeg version 4.4.2-0ubuntu0.22.04.1 Copyright (c) 2000-2021 the FFmpeg developers\n  built with gcc 11 (Ubuntu 11.2.0-19ubuntu1)\n  configuration: --prefix=/usr --extra-version=0ubuntu0.22.04.1 --toolchain=hardened --libdir=/usr/lib/x86_64-linux-gnu --incdir=/usr/include/x86_64-linux-gnu --arch=amd64 --enable-gpl --disable-stripping --enable-gnutls --enable-ladspa --enable-libaom --enable-libass --enable-libbluray --enable-libbs2b --enable-libcaca --enable-libcdio --enable-libcodec2 --enable-libdav1d --enable-libflite --enable-libfontconfig --enable-libfreetype --enable-libfribidi --enable-libgme --enable-libgsm --enable-libjack --enable-libmp3lame --enable-libmysofa --enable-libopenjpeg --enable-libopenmpt --enable-libopus --enable-libpulse --enable-librabbitmq --enable-librubberband --enable-libshine --enable-libsnappy --enable-libsoxr --enable-libspeex --enable-libsrt --enable-libssh --enable-libtheora --enable-libtwolame --enable-libvidstab --enable-libvorbis --enable-libvpx --enable-libwebp --enable-libx265 --enable-libxml2 --enable-libxvid --enable-libzimg --enable-libzmq --enable-libzvbi --enable-lv2 --enable-omx --enable-openal --enable-opencl --enable-opengl --enable-sdl2 --enable-pocketsphinx --enable-librsvg --enable-libmfx --enable-libdc1394 --enable-libdrm --enable-libiec61883 --enable-chromaprint --enable-frei0r --enable-libx264 --enable-shared\n  libavutil      56. 70.100 / 56. 70.100\n  libavcodec     58.134.100 / 58.134.100\n  libavformat    58. 76.100 / 58. 76.100\n  libavdevice    58. 13.100 / 58. 13.100\n  libavfilter     7.110.100 /  7.110.100\n  libswscale      5.  9.100 /  5.  9.100\n  libswresample   3.  9.100 /  3.  9.100\n  libpostproc    55.  9.100 / 55.  9.100\nInput #0, mov,mp4,m4a,3gp,3g2,mj2, from '/kaggle/input/video-inpainting-small-dataset/humans/vid2_540x960_30fps_10s.mp4':\n  Metadata:\n    major_brand     : isom\n    minor_version   : 512\n    compatible_brands: isomiso2avc1mp41\n    encoder         : Lavf61.7.100\n  Duration: 00:00:10.00, start: 0.000000, bitrate: 2556 kb/s\n  Stream #0:0(und): Video: h264 (High) (avc1 / 0x31637661), yuv420p(tv, bt709), 540x960 [SAR 1:1 DAR 9:16], 2553 kb/s, 30 fps, 30 tbr, 15360 tbn, 60 tbc (default)\n    Metadata:\n      handler_name    : L-SMASH Video Handler\n      vendor_id       : [0][0][0][0]\n      encoder         : Lavc61.19.101 libx264\nStream mapping:\n  Stream #0:0 -> #0:0 (h264 (native) -> mjpeg (native))\nPress [q] to stop, [?] for help\n[swscaler @ 0x5ce4f6e4c140] deprecated pixel format used, make sure you did set range correctly\nOutput #0, image2, to '/kaggle/working/video_inpainting_frames_dataset/frames/humans/humans__vid2_540x960_30fps_10s/%05d.jpg':\n  Metadata:\n    major_brand     : isom\n    minor_version   : 512\n    compatible_brands: isomiso2avc1mp41\n    encoder         : Lavf58.76.100\n  Stream #0:0(und): Video: mjpeg, yuvj420p(pc, bt709, progressive), 540x960 [SAR 1:1 DAR 9:16], q=2-31, 200 kb/s, 30 fps, 30 tbn (default)\n    Metadata:\n      handler_name    : L-SMASH Video Handler\n      vendor_id       : [0][0][0][0]\n      encoder         : Lavc58.134.100 mjpeg\n    Side data:\n      cpb: bitrate max/min/avg: 0/0/200000 buffer size: 0 vbv_delay: N/A\nframe=  300 fps=219 q=2.0 Lsize=N/A time=00:00:10.00 bitrate=N/A speed= 7.3x    \nvideo:23609kB audio:0kB subtitle:0kB other streams:0kB global headers:0kB muxing overhead: unknown\n","output_type":"stream"},{"name":"stdout","text":"[RUN] humans__vid3_960x540_30fps_10s <- vid3_960x540_30fps_10s.mp4\nffmpeg -n -i /kaggle/input/video-inpainting-small-dataset/humans/vid3_960x540_30fps_10s.mp4 -vsync vfr -q:v 2 /kaggle/working/video_inpainting_frames_dataset/frames/humans/humans__vid3_960x540_30fps_10s/%05d.jpg\n","output_type":"stream"},{"name":"stderr","text":"ffmpeg version 4.4.2-0ubuntu0.22.04.1 Copyright (c) 2000-2021 the FFmpeg developers\n  built with gcc 11 (Ubuntu 11.2.0-19ubuntu1)\n  configuration: --prefix=/usr --extra-version=0ubuntu0.22.04.1 --toolchain=hardened --libdir=/usr/lib/x86_64-linux-gnu --incdir=/usr/include/x86_64-linux-gnu --arch=amd64 --enable-gpl --disable-stripping --enable-gnutls --enable-ladspa --enable-libaom --enable-libass --enable-libbluray --enable-libbs2b --enable-libcaca --enable-libcdio --enable-libcodec2 --enable-libdav1d --enable-libflite --enable-libfontconfig --enable-libfreetype --enable-libfribidi --enable-libgme --enable-libgsm --enable-libjack --enable-libmp3lame --enable-libmysofa --enable-libopenjpeg --enable-libopenmpt --enable-libopus --enable-libpulse --enable-librabbitmq --enable-librubberband --enable-libshine --enable-libsnappy --enable-libsoxr --enable-libspeex --enable-libsrt --enable-libssh --enable-libtheora --enable-libtwolame --enable-libvidstab --enable-libvorbis --enable-libvpx --enable-libwebp --enable-libx265 --enable-libxml2 --enable-libxvid --enable-libzimg --enable-libzmq --enable-libzvbi --enable-lv2 --enable-omx --enable-openal --enable-opencl --enable-opengl --enable-sdl2 --enable-pocketsphinx --enable-librsvg --enable-libmfx --enable-libdc1394 --enable-libdrm --enable-libiec61883 --enable-chromaprint --enable-frei0r --enable-libx264 --enable-shared\n  libavutil      56. 70.100 / 56. 70.100\n  libavcodec     58.134.100 / 58.134.100\n  libavformat    58. 76.100 / 58. 76.100\n  libavdevice    58. 13.100 / 58. 13.100\n  libavfilter     7.110.100 /  7.110.100\n  libswscale      5.  9.100 /  5.  9.100\n  libswresample   3.  9.100 /  3.  9.100\n  libpostproc    55.  9.100 / 55.  9.100\nInput #0, mov,mp4,m4a,3gp,3g2,mj2, from '/kaggle/input/video-inpainting-small-dataset/humans/vid3_960x540_30fps_10s.mp4':\n  Metadata:\n    major_brand     : isom\n    minor_version   : 512\n    compatible_brands: isomiso2avc1mp41\n    encoder         : Lavf61.7.100\n  Duration: 00:00:10.00, start: 0.000000, bitrate: 2192 kb/s\n  Stream #0:0(und): Video: h264 (High) (avc1 / 0x31637661), yuv420p(tv, bt709), 960x540 [SAR 1:1 DAR 16:9], 2188 kb/s, 30 fps, 30 tbr, 15360 tbn, 60 tbc (default)\n    Metadata:\n      handler_name    : L-SMASH Video Handler\n      vendor_id       : [0][0][0][0]\n      encoder         : Lavc61.19.101 libx264\nStream mapping:\n  Stream #0:0 -> #0:0 (h264 (native) -> mjpeg (native))\nPress [q] to stop, [?] for help\n[swscaler @ 0x5afe5c438d00] deprecated pixel format used, make sure you did set range correctly\nOutput #0, image2, to '/kaggle/working/video_inpainting_frames_dataset/frames/humans/humans__vid3_960x540_30fps_10s/%05d.jpg':\n  Metadata:\n    major_brand     : isom\n    minor_version   : 512\n    compatible_brands: isomiso2avc1mp41\n    encoder         : Lavf58.76.100\n  Stream #0:0(und): Video: mjpeg, yuvj420p(pc, bt709, progressive), 960x540 [SAR 1:1 DAR 16:9], q=2-31, 200 kb/s, 30 fps, 30 tbn (default)\n    Metadata:\n      handler_name    : L-SMASH Video Handler\n      vendor_id       : [0][0][0][0]\n      encoder         : Lavc58.134.100 mjpeg\n    Side data:\n      cpb: bitrate max/min/avg: 0/0/200000 buffer size: 0 vbv_delay: N/A\nframe=  300 fps=223 q=2.0 Lsize=N/A time=00:00:10.00 bitrate=N/A speed=7.42x    \nvideo:23663kB audio:0kB subtitle:0kB other streams:0kB global headers:0kB muxing overhead: unknown\n","output_type":"stream"},{"name":"stdout","text":"[RUN] humans__vid4_960x540_30fps_10s <- vid4_960x540_30fps_10s.mp4\nffmpeg -n -i /kaggle/input/video-inpainting-small-dataset/humans/vid4_960x540_30fps_10s.mp4 -vsync vfr -q:v 2 /kaggle/working/video_inpainting_frames_dataset/frames/humans/humans__vid4_960x540_30fps_10s/%05d.jpg\n","output_type":"stream"},{"name":"stderr","text":"ffmpeg version 4.4.2-0ubuntu0.22.04.1 Copyright (c) 2000-2021 the FFmpeg developers\n  built with gcc 11 (Ubuntu 11.2.0-19ubuntu1)\n  configuration: --prefix=/usr --extra-version=0ubuntu0.22.04.1 --toolchain=hardened --libdir=/usr/lib/x86_64-linux-gnu --incdir=/usr/include/x86_64-linux-gnu --arch=amd64 --enable-gpl --disable-stripping --enable-gnutls --enable-ladspa --enable-libaom --enable-libass --enable-libbluray --enable-libbs2b --enable-libcaca --enable-libcdio --enable-libcodec2 --enable-libdav1d --enable-libflite --enable-libfontconfig --enable-libfreetype --enable-libfribidi --enable-libgme --enable-libgsm --enable-libjack --enable-libmp3lame --enable-libmysofa --enable-libopenjpeg --enable-libopenmpt --enable-libopus --enable-libpulse --enable-librabbitmq --enable-librubberband --enable-libshine --enable-libsnappy --enable-libsoxr --enable-libspeex --enable-libsrt --enable-libssh --enable-libtheora --enable-libtwolame --enable-libvidstab --enable-libvorbis --enable-libvpx --enable-libwebp --enable-libx265 --enable-libxml2 --enable-libxvid --enable-libzimg --enable-libzmq --enable-libzvbi --enable-lv2 --enable-omx --enable-openal --enable-opencl --enable-opengl --enable-sdl2 --enable-pocketsphinx --enable-librsvg --enable-libmfx --enable-libdc1394 --enable-libdrm --enable-libiec61883 --enable-chromaprint --enable-frei0r --enable-libx264 --enable-shared\n  libavutil      56. 70.100 / 56. 70.100\n  libavcodec     58.134.100 / 58.134.100\n  libavformat    58. 76.100 / 58. 76.100\n  libavdevice    58. 13.100 / 58. 13.100\n  libavfilter     7.110.100 /  7.110.100\n  libswscale      5.  9.100 /  5.  9.100\n  libswresample   3.  9.100 /  3.  9.100\n  libpostproc    55.  9.100 / 55.  9.100\nInput #0, mov,mp4,m4a,3gp,3g2,mj2, from '/kaggle/input/video-inpainting-small-dataset/humans/vid4_960x540_30fps_10s.mp4':\n  Metadata:\n    major_brand     : isom\n    minor_version   : 512\n    compatible_brands: isomiso2avc1mp41\n    encoder         : Lavf61.7.100\n    comment         : Create videos with https://clipchamp.com/en/video-editor - free online video editor, video compressor, video converter.\n  Duration: 00:00:10.00, start: 0.000000, bitrate: 3284 kb/s\n  Stream #0:0(und): Video: h264 (High) (avc1 / 0x31637661), yuv420p(tv, bt709), 960x540 [SAR 1:1 DAR 16:9], 3282 kb/s, 30 fps, 30 tbr, 15360 tbn, 60 tbc (default)\n    Metadata:\n      handler_name    : VideoHandler\n      vendor_id       : [0][0][0][0]\n      encoder         : Lavc61.19.101 libx264\nStream mapping:\n  Stream #0:0 -> #0:0 (h264 (native) -> mjpeg (native))\nPress [q] to stop, [?] for help\n[swscaler @ 0x595902bddf40] deprecated pixel format used, make sure you did set range correctly\nOutput #0, image2, to '/kaggle/working/video_inpainting_frames_dataset/frames/humans/humans__vid4_960x540_30fps_10s/%05d.jpg':\n  Metadata:\n    major_brand     : isom\n    minor_version   : 512\n    compatible_brands: isomiso2avc1mp41\n    comment         : Create videos with https://clipchamp.com/en/video-editor - free online video editor, video compressor, video converter.\n    encoder         : Lavf58.76.100\n  Stream #0:0(und): Video: mjpeg, yuvj420p(pc, bt709, progressive), 960x540 [SAR 1:1 DAR 16:9], q=2-31, 200 kb/s, 30 fps, 30 tbn (default)\n    Metadata:\n      handler_name    : VideoHandler\n      vendor_id       : [0][0][0][0]\n      encoder         : Lavc58.134.100 mjpeg\n    Side data:\n      cpb: bitrate max/min/avg: 0/0/200000 buffer size: 0 vbv_delay: N/A\nframe=  300 fps=157 q=2.0 Lsize=N/A time=00:00:10.00 bitrate=N/A speed=5.25x    \nvideo:56930kB audio:0kB subtitle:0kB other streams:0kB global headers:0kB muxing overhead: unknown\n","output_type":"stream"},{"name":"stdout","text":"[RUN] humans__vid5_960x540_30fps_10s <- vid5_960x540_30fps_10s.mp4\nffmpeg -n -i /kaggle/input/video-inpainting-small-dataset/humans/vid5_960x540_30fps_10s.mp4 -vsync vfr -q:v 2 /kaggle/working/video_inpainting_frames_dataset/frames/humans/humans__vid5_960x540_30fps_10s/%05d.jpg\n","output_type":"stream"},{"name":"stderr","text":"ffmpeg version 4.4.2-0ubuntu0.22.04.1 Copyright (c) 2000-2021 the FFmpeg developers\n  built with gcc 11 (Ubuntu 11.2.0-19ubuntu1)\n  configuration: --prefix=/usr --extra-version=0ubuntu0.22.04.1 --toolchain=hardened --libdir=/usr/lib/x86_64-linux-gnu --incdir=/usr/include/x86_64-linux-gnu --arch=amd64 --enable-gpl --disable-stripping --enable-gnutls --enable-ladspa --enable-libaom --enable-libass --enable-libbluray --enable-libbs2b --enable-libcaca --enable-libcdio --enable-libcodec2 --enable-libdav1d --enable-libflite --enable-libfontconfig --enable-libfreetype --enable-libfribidi --enable-libgme --enable-libgsm --enable-libjack --enable-libmp3lame --enable-libmysofa --enable-libopenjpeg --enable-libopenmpt --enable-libopus --enable-libpulse --enable-librabbitmq --enable-librubberband --enable-libshine --enable-libsnappy --enable-libsoxr --enable-libspeex --enable-libsrt --enable-libssh --enable-libtheora --enable-libtwolame --enable-libvidstab --enable-libvorbis --enable-libvpx --enable-libwebp --enable-libx265 --enable-libxml2 --enable-libxvid --enable-libzimg --enable-libzmq --enable-libzvbi --enable-lv2 --enable-omx --enable-openal --enable-opencl --enable-opengl --enable-sdl2 --enable-pocketsphinx --enable-librsvg --enable-libmfx --enable-libdc1394 --enable-libdrm --enable-libiec61883 --enable-chromaprint --enable-frei0r --enable-libx264 --enable-shared\n  libavutil      56. 70.100 / 56. 70.100\n  libavcodec     58.134.100 / 58.134.100\n  libavformat    58. 76.100 / 58. 76.100\n  libavdevice    58. 13.100 / 58. 13.100\n  libavfilter     7.110.100 /  7.110.100\n  libswscale      5.  9.100 /  5.  9.100\n  libswresample   3.  9.100 /  3.  9.100\n  libpostproc    55.  9.100 / 55.  9.100\nInput #0, mov,mp4,m4a,3gp,3g2,mj2, from '/kaggle/input/video-inpainting-small-dataset/humans/vid5_960x540_30fps_10s.mp4':\n  Metadata:\n    major_brand     : isom\n    minor_version   : 512\n    compatible_brands: isomiso2avc1mp41\n    encoder         : Lavf61.7.100\n    comment         : Create videos with https://clipchamp.com/en/video-editor - free online video editor, video compressor, video converter.\n  Duration: 00:00:10.00, start: 0.000000, bitrate: 1353 kb/s\n  Stream #0:0(und): Video: h264 (High) (avc1 / 0x31637661), yuv420p(tv, bt709), 960x540 [SAR 1:1 DAR 16:9], 1349 kb/s, 30 fps, 30 tbr, 15360 tbn, 60 tbc (default)\n    Metadata:\n      handler_name    : VideoHandler\n      vendor_id       : [0][0][0][0]\n      encoder         : Lavc61.19.101 libx264\nStream mapping:\n  Stream #0:0 -> #0:0 (h264 (native) -> mjpeg (native))\nPress [q] to stop, [?] for help\n[swscaler @ 0x5cfb187bbd00] deprecated pixel format used, make sure you did set range correctly\nOutput #0, image2, to '/kaggle/working/video_inpainting_frames_dataset/frames/humans/humans__vid5_960x540_30fps_10s/%05d.jpg':\n  Metadata:\n    major_brand     : isom\n    minor_version   : 512\n    compatible_brands: isomiso2avc1mp41\n    comment         : Create videos with https://clipchamp.com/en/video-editor - free online video editor, video compressor, video converter.\n    encoder         : Lavf58.76.100\n  Stream #0:0(und): Video: mjpeg, yuvj420p(pc, bt709, progressive), 960x540 [SAR 1:1 DAR 16:9], q=2-31, 200 kb/s, 30 fps, 30 tbn (default)\n    Metadata:\n      handler_name    : VideoHandler\n      vendor_id       : [0][0][0][0]\n      encoder         : Lavc58.134.100 mjpeg\n    Side data:\n      cpb: bitrate max/min/avg: 0/0/200000 buffer size: 0 vbv_delay: N/A\nframe=  300 fps=237 q=2.0 Lsize=N/A time=00:00:10.00 bitrate=N/A speed=7.92x    \nvideo:16469kB audio:0kB subtitle:0kB other streams:0kB global headers:0kB muxing overhead: unknown\n","output_type":"stream"},{"name":"stdout","text":"[RUN] humans__vid6_960x540_30fps_10s <- vid6_960x540_30fps_10s.mp4\nffmpeg -n -i /kaggle/input/video-inpainting-small-dataset/humans/vid6_960x540_30fps_10s.mp4 -vsync vfr -q:v 2 /kaggle/working/video_inpainting_frames_dataset/frames/humans/humans__vid6_960x540_30fps_10s/%05d.jpg\n","output_type":"stream"},{"name":"stderr","text":"ffmpeg version 4.4.2-0ubuntu0.22.04.1 Copyright (c) 2000-2021 the FFmpeg developers\n  built with gcc 11 (Ubuntu 11.2.0-19ubuntu1)\n  configuration: --prefix=/usr --extra-version=0ubuntu0.22.04.1 --toolchain=hardened --libdir=/usr/lib/x86_64-linux-gnu --incdir=/usr/include/x86_64-linux-gnu --arch=amd64 --enable-gpl --disable-stripping --enable-gnutls --enable-ladspa --enable-libaom --enable-libass --enable-libbluray --enable-libbs2b --enable-libcaca --enable-libcdio --enable-libcodec2 --enable-libdav1d --enable-libflite --enable-libfontconfig --enable-libfreetype --enable-libfribidi --enable-libgme --enable-libgsm --enable-libjack --enable-libmp3lame --enable-libmysofa --enable-libopenjpeg --enable-libopenmpt --enable-libopus --enable-libpulse --enable-librabbitmq --enable-librubberband --enable-libshine --enable-libsnappy --enable-libsoxr --enable-libspeex --enable-libsrt --enable-libssh --enable-libtheora --enable-libtwolame --enable-libvidstab --enable-libvorbis --enable-libvpx --enable-libwebp --enable-libx265 --enable-libxml2 --enable-libxvid --enable-libzimg --enable-libzmq --enable-libzvbi --enable-lv2 --enable-omx --enable-openal --enable-opencl --enable-opengl --enable-sdl2 --enable-pocketsphinx --enable-librsvg --enable-libmfx --enable-libdc1394 --enable-libdrm --enable-libiec61883 --enable-chromaprint --enable-frei0r --enable-libx264 --enable-shared\n  libavutil      56. 70.100 / 56. 70.100\n  libavcodec     58.134.100 / 58.134.100\n  libavformat    58. 76.100 / 58. 76.100\n  libavdevice    58. 13.100 / 58. 13.100\n  libavfilter     7.110.100 /  7.110.100\n  libswscale      5.  9.100 /  5.  9.100\n  libswresample   3.  9.100 /  3.  9.100\n  libpostproc    55.  9.100 / 55.  9.100\nInput #0, mov,mp4,m4a,3gp,3g2,mj2, from '/kaggle/input/video-inpainting-small-dataset/humans/vid6_960x540_30fps_10s.mp4':\n  Metadata:\n    major_brand     : isom\n    minor_version   : 512\n    compatible_brands: isomiso2avc1mp41\n    encoder         : Lavf61.7.100\n    comment         : Create videos with https://clipchamp.com/en/video-editor - free online video editor, video compressor, video converter.\n  Duration: 00:00:10.00, start: 0.000000, bitrate: 369 kb/s\n  Stream #0:0(und): Video: h264 (High) (avc1 / 0x31637661), yuv420p(tv, bt709), 960x540 [SAR 1:1 DAR 16:9], 366 kb/s, 30 fps, 30 tbr, 15360 tbn, 60 tbc (default)\n    Metadata:\n      handler_name    : VideoHandler\n      vendor_id       : [0][0][0][0]\n      encoder         : Lavc61.19.101 libx264\nStream mapping:\n  Stream #0:0 -> #0:0 (h264 (native) -> mjpeg (native))\nPress [q] to stop, [?] for help\n[swscaler @ 0x5d3ef35cc600] deprecated pixel format used, make sure you did set range correctly\nOutput #0, image2, to '/kaggle/working/video_inpainting_frames_dataset/frames/humans/humans__vid6_960x540_30fps_10s/%05d.jpg':\n  Metadata:\n    major_brand     : isom\n    minor_version   : 512\n    compatible_brands: isomiso2avc1mp41\n    comment         : Create videos with https://clipchamp.com/en/video-editor - free online video editor, video compressor, video converter.\n    encoder         : Lavf58.76.100\n  Stream #0:0(und): Video: mjpeg, yuvj420p(pc, bt709, progressive), 960x540 [SAR 1:1 DAR 16:9], q=2-31, 200 kb/s, 30 fps, 30 tbn (default)\n    Metadata:\n      handler_name    : VideoHandler\n      vendor_id       : [0][0][0][0]\n      encoder         : Lavc58.134.100 mjpeg\n    Side data:\n      cpb: bitrate max/min/avg: 0/0/200000 buffer size: 0 vbv_delay: N/A\nframe=  300 fps=273 q=2.0 Lsize=N/A time=00:00:10.00 bitrate=N/A speed=9.09x    \nvideo:4935kB audio:0kB subtitle:0kB other streams:0kB global headers:0kB muxing overhead: unknown\n","output_type":"stream"},{"name":"stdout","text":"\nDone. Total videos processed/checked: 18\nMaster index written to: /kaggle/working/video_inpainting_frames_dataset/index_videos.csv\nOutputs root: /kaggle/working/video_inpainting_frames_dataset\n","output_type":"stream"}],"execution_count":6},{"cell_type":"markdown","source":"# How to publish as a Kaggle dataset #\n\n1. Run the notebook to completion.\n2. Open the right panel → Output and confirm files exist under:\n    * /kaggle/working/video_inpainting_frames_dataset/\n\nExpected structure (depending on the settings):\n* frames/\\<category\\>/\\<video_id\\>/*.(jpg|png) (if not deleted after zipping)\n* zips/\\<category\\>/\\<video_id\\>.zip (if ZIP_EACH_VIDEO=True)\n* manifests/\\<category\\>/\\<video_id\\>.csv\n* index_videos.csv (master index across cats/cars/humans)\n\n3. Click Save Version (top right).\n4. In the save dialog, ensure “Save output” is enabled.\n\nKaggle will create a new dataset version containing the notebook outputs (frames and/or ZIPs and manifests).","metadata":{}},{"cell_type":"code","source":"","metadata":{"trusted":true},"outputs":[],"execution_count":null},{"cell_type":"code","source":"","metadata":{"trusted":true},"outputs":[],"execution_count":null}]}